<?xml version="1.0" encoding="UTF-8"?>
<!DOCTYPE svg PUBLIC "-//W3C//DTD SVG 1.1//EN" "http://www.w3.org/Graphics/SVG/1.1/DTD/svg11.dtd">
<svg xmlns="http://www.w3.org/2000/svg" version="1.1" width="277px" height="277px" style="shape-rendering:geometricPrecision; text-rendering:geometricPrecision; image-rendering:optimizeQuality; fill-rule:evenodd; clip-rule:evenodd" xmlns:xlink="http://www.w3.org/1999/xlink">
<g><path style="opacity:1" fill="#fefffe" d="M -0.5,-0.5 C 91.8333,-0.5 184.167,-0.5 276.5,-0.5C 276.5,4.16667 276.5,8.83333 276.5,13.5C 274.715,6.88483 270.382,2.71816 263.5,1C 179.167,0.333333 94.8333,0.333333 10.5,1C 4.82183,3.50475 1.15516,7.67142 -0.5,13.5C -0.5,8.83333 -0.5,4.16667 -0.5,-0.5 Z"/></g>
<g><path style="opacity:1" fill="#de4444" d="M 276.5,13.5 C 276.5,72.8333 276.5,132.167 276.5,191.5C 270.363,229.821 249.363,256.654 213.5,272C 208.044,273.527 202.711,275.027 197.5,276.5C 134.833,276.5 72.1667,276.5 9.5,276.5C 4.74828,274.083 1.41495,270.417 -0.5,265.5C -0.5,181.5 -0.5,97.5 -0.5,13.5C 1.15516,7.67142 4.82183,3.50475 10.5,1C 94.8333,0.333333 179.167,0.333333 263.5,1C 270.382,2.71816 274.715,6.88483 276.5,13.5 Z"/></g>
<g><path style="opacity:1" fill="#fefdfd" d="M 264.5,20.5 C 264.832,58.6703 264.499,96.6703 263.5,134.5C 253.753,118.087 240.42,105.421 223.5,96.5C 222.52,99.0865 222.187,101.753 222.5,104.5C 219.833,104.5 217.167,104.5 214.5,104.5C 214.5,101.833 214.5,99.1667 214.5,96.5C 217.341,96.8468 219.341,96.5135 220.5,95.5C 218.75,94.1302 216.75,93.1302 214.5,92.5C 213.596,93.209 213.263,94.209 213.5,95.5C 210.833,95.5 208.167,95.5 205.5,95.5C 205.799,93.396 205.466,91.396 204.5,89.5C 153.486,79.924 116.319,98.2573 93,144.5C 77.2898,189.509 87.4565,227.343 123.5,258C 127.167,260.333 130.833,262.667 134.5,265C 95.5,265.667 56.5,265.667 17.5,265C 13.5936,264.027 11.427,261.527 11,257.5C 10.0086,177.11 10.342,96.7765 12,16.5C 13.5429,14.6217 15.3762,13.1217 17.5,12C 97.1667,11.3333 176.833,11.3333 256.5,12C 261.479,12.8084 264.146,15.6417 264.5,20.5 Z"/></g>
<g><path style="opacity:1" fill="#e67373" d="M 264.5,20.5 C 265.665,58.9978 265.831,97.6645 265,136.5C 264.283,135.956 263.783,135.289 263.5,134.5C 264.499,96.6703 264.832,58.6703 264.5,20.5 Z"/></g>
<g><path style="opacity:1" fill="#de4747" d="M 33.5,35.5 C 47.1667,35.5 60.8333,35.5 74.5,35.5C 74.8158,38.9783 74.3158,42.3117 73,45.5C 63.3765,59.2464 53.8765,73.0798 44.5,87C 54.828,87.4998 65.1613,87.6665 75.5,87.5C 75.5,90.1667 75.5,92.8333 75.5,95.5C 61.1667,95.5 46.8333,95.5 32.5,95.5C 32.3359,92.8127 32.5026,90.146 33,87.5C 42.7474,73.6731 52.2474,59.6731 61.5,45.5C 52.1904,44.5017 42.8571,44.1684 33.5,44.5C 33.5,41.5 33.5,38.5 33.5,35.5 Z"/></g>
<g><path style="opacity:1" fill="#e05351" d="M 214.5,92.5 C 216.75,93.1302 218.75,94.1302 220.5,95.5C 218.5,95.5 216.5,95.5 214.5,95.5C 214.5,94.5 214.5,93.5 214.5,92.5 Z"/></g>
<g><path style="opacity:1" fill="#fefffe" d="M 213.5,104.5 C 213.5,107.167 213.5,109.833 213.5,112.5C 210.833,112.5 208.167,112.5 205.5,112.5C 205.5,109.833 205.5,107.167 205.5,104.5C 208.167,104.5 210.833,104.5 213.5,104.5 Z"/></g>
<g><path style="opacity:1" fill="#f4bfbe" d="M 214.5,92.5 C 214.5,93.5 214.5,94.5 214.5,95.5C 216.5,95.5 218.5,95.5 220.5,95.5C 219.341,96.5135 217.341,96.8468 214.5,96.5C 214.5,99.1667 214.5,101.833 214.5,104.5C 214.5,107.167 214.5,109.833 214.5,112.5C 217.385,112.194 220.052,112.527 222.5,113.5C 219.833,113.5 217.167,113.5 214.5,113.5C 214.5,116.167 214.5,118.833 214.5,121.5C 214.5,124.167 214.5,126.833 214.5,129.5C 217.385,129.194 220.052,129.527 222.5,130.5C 219.833,130.5 217.167,130.5 214.5,130.5C 214.5,133.167 214.5,135.833 214.5,138.5C 214.5,141.167 214.5,143.833 214.5,146.5C 214.5,149.167 214.5,151.833 214.5,154.5C 217.167,154.5 219.833,154.5 222.5,154.5C 220.052,155.473 217.385,155.806 214.5,155.5C 214.5,158.167 214.5,160.833 214.5,163.5C 214.806,166.385 214.473,169.052 213.5,171.5C 213.5,168.833 213.5,166.167 213.5,163.5C 213.5,160.833 213.5,158.167 213.5,155.5C 210.833,155.5 208.167,155.5 205.5,155.5C 207.948,154.527 210.615,154.194 213.5,154.5C 213.5,151.833 213.5,149.167 213.5,146.5C 213.5,143.833 213.5,141.167 213.5,138.5C 213.5,135.833 213.5,133.167 213.5,130.5C 210.615,130.806 207.948,130.473 205.5,129.5C 208.167,129.5 210.833,129.5 213.5,129.5C 213.5,126.833 213.5,124.167 213.5,121.5C 213.5,118.833 213.5,116.167 213.5,113.5C 210.615,113.806 207.948,113.473 205.5,112.5C 208.167,112.5 210.833,112.5 213.5,112.5C 213.5,109.833 213.5,107.167 213.5,104.5C 213.5,101.833 213.5,99.1667 213.5,96.5C 210.615,96.8064 207.948,96.4731 205.5,95.5C 208.167,95.5 210.833,95.5 213.5,95.5C 213.263,94.209 213.596,93.209 214.5,92.5 Z"/></g>
<g><path style="opacity:1" fill="#fefffe" d="M 222.5,113.5 C 222.5,116.167 222.5,118.833 222.5,121.5C 219.833,121.5 217.167,121.5 214.5,121.5C 214.5,118.833 214.5,116.167 214.5,113.5C 217.167,113.5 219.833,113.5 222.5,113.5 Z"/></g>
<g><path style="opacity:1" fill="#fefffe" d="M 213.5,121.5 C 213.5,124.167 213.5,126.833 213.5,129.5C 210.833,129.5 208.167,129.5 205.5,129.5C 205.5,126.833 205.5,124.167 205.5,121.5C 208.167,121.5 210.833,121.5 213.5,121.5 Z"/></g>
<g><path style="opacity:1" fill="#fefffe" d="M 222.5,130.5 C 222.5,133.167 222.5,135.833 222.5,138.5C 219.833,138.5 217.167,138.5 214.5,138.5C 214.5,135.833 214.5,133.167 214.5,130.5C 217.167,130.5 219.833,130.5 222.5,130.5 Z"/></g>
<g><path style="opacity:1" fill="#fefffe" d="M 213.5,138.5 C 213.5,141.167 213.5,143.833 213.5,146.5C 210.833,146.5 208.167,146.5 205.5,146.5C 205.5,143.833 205.5,141.167 205.5,138.5C 208.167,138.5 210.833,138.5 213.5,138.5 Z"/></g>
<g><path style="opacity:1" fill="#fefffe" d="M 214.5,146.5 C 217.167,146.5 219.833,146.5 222.5,146.5C 222.5,149.167 222.5,151.833 222.5,154.5C 222.5,151.833 222.5,149.167 222.5,146.5C 219.833,146.5 217.167,146.5 214.5,146.5 Z"/></g>
<g><path style="opacity:1" fill="#fefffe" d="M 205.5,155.5 C 208.167,155.5 210.833,155.5 213.5,155.5C 213.5,158.167 213.5,160.833 213.5,163.5C 210.833,163.5 208.167,163.5 205.5,163.5C 205.5,160.833 205.5,158.167 205.5,155.5 Z"/></g>
<g><path style="opacity:1" fill="#eea0a0" d="M 157.5,158.5 C 150.833,158.5 144.167,158.5 137.5,158.5C 137.5,165.167 137.5,171.833 137.5,178.5C 136.509,171.687 136.175,164.687 136.5,157.5C 143.687,157.175 150.687,157.509 157.5,158.5 Z"/></g>
<g><path style="opacity:1" fill="#fef8f8" d="M 157.5,158.5 C 160.281,162.554 162.947,166.72 165.5,171C 177.495,171.5 189.495,171.667 201.5,171.5C 201.122,173.921 200.455,176.254 199.5,178.5C 178.833,178.5 158.167,178.5 137.5,178.5C 137.5,171.833 137.5,165.167 137.5,158.5C 144.167,158.5 150.833,158.5 157.5,158.5 Z"/></g>
<g><path style="opacity:1" fill="#fefbfb" d="M 214.5,163.5 C 217.167,163.5 219.833,163.5 222.5,163.5C 222.335,166.518 222.502,169.518 223,172.5C 230.77,187.578 234.436,203.578 234,220.5C 227.198,235.435 216.364,239.269 201.5,232C 197.334,228.835 194.834,224.668 194,219.5C 193.547,202.975 197.047,187.308 204.5,172.5C 207.428,171.516 210.428,171.183 213.5,171.5C 214.473,169.052 214.806,166.385 214.5,163.5 Z"/></g>
<g><path style="opacity:1" fill="#e57272" d="M 137.5,179.5 C 137.5,179.167 137.5,178.833 137.5,178.5C 158.167,178.5 178.833,178.5 199.5,178.5C 199.672,179.492 199.338,180.158 198.5,180.5C 178.34,179.503 158.007,179.17 137.5,179.5 Z"/></g>
<g><path style="opacity:1" fill="#fefcfc" d="M 137.5,179.5 C 158.007,179.17 178.34,179.503 198.5,180.5C 192.778,194.278 190.612,208.612 192,223.5C 192.516,226.034 193.683,228.2 195.5,230C 175.836,230.5 156.169,230.667 136.5,230.5C 136.17,213.325 136.503,196.325 137.5,179.5 Z"/></g>
<g><path style="opacity:1" fill="#fefffe" d="M 276.5,191.5 C 276.5,219.833 276.5,248.167 276.5,276.5C 250.167,276.5 223.833,276.5 197.5,276.5C 202.711,275.027 208.044,273.527 213.5,272C 249.363,256.654 270.363,229.821 276.5,191.5 Z"/></g>
<g><path style="opacity:1" fill="#df4a49" d="M 210.5,202.5 C 215.474,202.299 218.64,204.632 220,209.5C 222.436,216.59 220.103,220.924 213,222.5C 208.528,221.191 206.028,218.191 205.5,213.5C 206.364,209.44 208.031,205.773 210.5,202.5 Z"/></g>
<g><path style="opacity:1" fill="#fefffe" d="M -0.5,265.5 C 1.41495,270.417 4.74828,274.083 9.5,276.5C 6.16667,276.5 2.83333,276.5 -0.5,276.5C -0.5,272.833 -0.5,269.167 -0.5,265.5 Z"/></g>
</svg>
