<?xml version="1.0" encoding="utf-8"?>
<svg viewBox="0 0 500 500" xmlns="http://www.w3.org/2000/svg">
  <g>
    <path id="XMLID_8_" class="st0" d="M 295.665 162.871 C 269.885 162.871 247.995 171.941 229.975 190.071 C 211.855 208.091 202.795 230.001 202.795 255.791 C 202.795 281.581 211.855 303.441 229.975 321.351 C 236.625 328.131 243.825 333.651 251.585 337.911 L 138.795 337.911 C 136.995 337.801 135.245 337.291 133.565 336.391 C 130.755 335.041 129.345 332.391 129.345 328.451 L 129.345 99.011 C 129.565 96.981 130.015 95.241 130.695 93.771 C 132.155 90.951 134.865 89.551 138.795 89.551 L 368.265 89.551 L 369.785 89.891 C 371.135 90.121 372.315 90.451 373.335 90.901 C 376.265 92.251 377.725 94.951 377.725 99.011 L 377.725 211.881 C 373.465 204.091 367.955 196.821 361.175 190.091 C 342.945 171.941 321.105 162.871 295.665 162.871 Z" style="clip-rule: evenodd; fill: rgb(255, 255, 255); fill-rule: evenodd;"/>
    <path id="XMLID_2_" class="st1" d="M 295.665 162.871 C 321.105 162.871 342.945 171.941 361.175 190.071 C 367.955 196.811 373.465 204.071 377.725 211.861 L 377.725 99.011 C 377.725 94.951 376.265 92.251 373.335 90.901 C 372.325 90.451 371.135 90.111 369.785 89.891 L 368.265 89.551 L 138.795 89.551 C 134.855 89.551 132.155 90.961 130.695 93.771 C 130.015 95.231 129.565 96.981 129.345 99.011 L 129.345 328.461 C 129.345 332.401 130.755 335.051 133.565 336.401 C 135.255 337.301 136.995 337.811 138.795 337.921 L 251.585 337.921 C 243.825 333.661 236.625 328.141 229.975 321.361 C 211.855 303.451 202.795 281.601 202.795 255.801 C 202.795 230.001 211.855 208.101 229.975 190.081 C 247.985 171.941 269.885 162.871 295.665 162.871 Z M 374.345 79.071 C 376.825 79.521 378.735 80.141 380.085 80.931 C 385.715 83.631 388.525 88.531 388.525 95.631 L 388.525 255.811 C 388.525 281.491 379.405 303.351 361.165 321.371 C 342.935 339.621 321.095 348.741 295.655 348.741 L 135.415 348.741 C 132.715 348.741 129.895 348.071 126.975 346.711 C 121.345 343.781 118.535 338.831 118.535 331.841 L 118.535 95.631 C 118.535 92.811 119.265 90.001 120.725 87.181 C 123.425 81.551 128.325 78.731 135.415 78.731 L 371.645 78.731 L 374.345 79.071 Z" style="clip-rule: evenodd; fill-rule: evenodd; fill: rgb(255, 205, 56);"/>
    <path class="st2" d="M 192.265 171.661 L 150.385 171.661 L 150.385 165.011 L 179.895 121.331 L 151.185 121.331 L 151.185 113.121 L 191.465 113.121 L 191.465 119.851 L 161.835 163.451 L 192.265 163.451 L 192.265 171.661 Z" style="fill: rgb(255, 205, 56);"/>
    <polygon class="st3" points="333.245 303.271 252.725 303.271 252.725 232.551 272.265 232.551 281.035 246.201 333.245 246.201 311.535 293.501" style="fill: rgb(255, 255, 255);"/>
    <line class="st4" x1="333.245" y1="252.951" x2="252.725" y2="252.951" style="stroke-miterlimit: 10; fill: none; paint-order: fill; fill-rule: evenodd; stroke: rgb(255, 205, 56);"/>
    <path class="st5" d="M 318.455 242.391 C 310.795 255.571 305.485 281.071 305.485 290.071 C 305.485 302.421 315.495 312.431 327.845 312.431 C 340.195 312.431 350.205 302.411 350.205 290.061 C 350.205 280.981 345.015 255.471 337.245 242.401 M 327.345 297.671 C 322.565 297.671 318.695 293.801 318.695 289.021 C 318.695 284.241 322.565 275.361 327.345 275.361 C 332.125 275.361 335.995 284.251 335.995 289.021 C 335.995 293.791 332.125 297.671 327.345 297.671 Z" style="fill: rgb(255, 205, 56);"/>
    <g transform="matrix(1, 0, 0, 1, 115.205162, 75.390556)">
      <g>
        <rect x="204.27" y="104.94" class="st3" width="8.37" height="8.25" style="fill: rgb(255, 255, 255);"/>
        <rect x="204.27" y="121.38" class="st3" width="8.37" height="8.25" style="fill: rgb(255, 255, 255);"/>
        <rect x="212.65" y="113.13" class="st3" width="8.37" height="8.25" style="fill: rgb(255, 255, 255);"/>
        <rect x="212.65" y="129.63" class="st3" width="8.37" height="8.25" style="fill: rgb(255, 255, 255);"/>
      </g>
      <g>
        <rect x="204.27" y="88.44" class="st3" width="8.37" height="8.25" style="fill: rgb(255, 255, 255);"/>
        <rect x="212.65" y="80.19" class="st3" width="8.37" height="8.25" style="fill: rgb(255, 255, 255);"/>
        <rect x="212.65" y="96.69" class="st3" width="8.37" height="8.25" style="fill: rgb(255, 255, 255);"/>
      </g>
      <g>
        <rect x="204.27" y="137.88" class="st3" width="8.37" height="8.25" style="fill: rgb(255, 255, 255);"/>
        <rect x="204.27" y="154.33" class="st3" width="8.37" height="8.25" style="fill: rgb(255, 255, 255);"/>
        <rect x="212.65" y="146.08" class="st3" width="8.37" height="8.25" style="fill: rgb(255, 255, 255);"/>
        <rect x="212.65" y="162.58" class="st3" width="8.37" height="8.25" style="fill: rgb(255, 255, 255);"/>
      </g>
    </g>
    <path class="st3" d="M 319.475 246.201 C 312.655 257.951 307.915 280.661 307.915 288.681 C 307.915 299.681 316.835 308.601 327.835 308.601 C 338.835 308.601 347.755 299.681 347.755 288.681 C 347.755 280.591 343.135 257.861 336.205 246.211 M 327.405 295.461 C 323.155 295.461 319.705 292.011 319.705 287.761 C 319.705 283.511 323.155 275.591 327.405 275.591 C 331.665 275.591 335.105 283.511 335.105 287.761 C 335.105 292.011 331.655 295.461 327.405 295.461 Z" style="fill: rgb(255, 255, 255);"/>
  </g>
  <g transform="matrix(1, 0, 0, 1, 115.205162, 75.390556)"/>
  <g transform="matrix(1, 0, 0, 1, 115.205162, 75.390556)"/>
  <g transform="matrix(1, 0, 0, 1, 115.205162, 75.390556)"/>
  <g transform="matrix(1, 0, 0, 1, 115.205162, 75.390556)"/>
  <g transform="matrix(1, 0, 0, 1, 115.205162, 75.390556)"/>
  <g transform="matrix(1, 0, 0, 1, 115.205162, 75.390556)"/>
</svg>