<svg width="218" height="223" viewBox="0 0 218 223" fill="none" xmlns="http://www.w3.org/2000/svg">
<path d="M5 20.6001H203V149.6C203 188.26 171.66 219.6 133 219.6H5V20.6001Z" fill="white"/>
<path fill-rule="evenodd" clip-rule="evenodd" d="M8.26097 18.1794C5.02587 19.1238 1.54417 22.7961 0.615374 26.2452C0.0960745 28.1741 -0.091629 59.5061 0.041171 122.227C0.236971 214.899 0.245169 215.354 1.76527 217.439C2.60507 218.591 4.77517 220.294 6.58757 221.223L9.88198 222.913L78.507 222.694C147.063 222.475 147.138 222.473 153.068 220.808C176.922 214.109 197.01 193.87 203.326 170.174L205 163.891V94.5241V25.1576L203.346 22.8377C202.435 21.5624 200.432 19.8931 198.894 19.1282C196.209 17.7943 192.379 17.7335 103.361 17.614C48.027 17.5398 9.67097 17.7683 8.26097 18.1794ZM192.209 26.3112C197.468 27.7713 197.244 25.556 197.031 74.0441L196.839 117.609L193.725 112.872C189.303 106.146 177.252 94.8691 170.238 90.8941C158.754 84.3851 148.735 81.7991 134.891 81.7721C114.408 81.7311 99.03 88.0231 84.776 102.277C70.654 116.398 64.288 131.817 64.236 152.021C64.196 167.915 68.121 180.815 76.65 192.825C80.692 198.515 91.961 209.384 96.721 212.182L100.393 214.34L57.153 214.531C9.97097 214.741 10.344 214.771 8.73797 210.547C7.65997 207.713 7.78698 33.1161 8.86898 30.0121C10.489 25.3646 5.80197 25.5894 101.877 25.5619C160.501 25.5449 190.342 25.7926 192.209 26.3112ZM39.824 41.8941C34.832 42.6941 31.37 44.5711 28.164 48.2131C20.869 56.5001 21.034 73.0341 28.489 80.7101C33.002 85.3571 36.433 86.7171 43.638 86.7151C49.018 86.7141 50.49 86.4271 53.654 84.7571C55.694 83.6821 58.084 82.0171 58.964 81.0581C64.878 74.6191 66.396 62.7861 62.543 53.1581C59.399 45.3061 49.416 40.3551 39.824 41.8941ZM51.33 48.8011C53.838 50.2711 55.149 51.7571 56.657 54.8391C58.484 58.5721 58.629 59.5061 58.338 65.5941C58.055 71.5241 57.774 72.6101 55.806 75.4121C52.838 79.6351 48.729 81.8891 44.009 81.8841C33.941 81.8731 28.256 74.6651 28.945 62.7851C29.192 58.4941 29.741 56.1661 31.052 53.8331C35.064 46.6941 43.966 44.4851 51.33 48.8011ZM142.343 103.173C156.623 109.892 163.102 126.724 156.715 140.508L154.891 144.445L163.068 152.813C170.8 160.725 171.244 161.346 171.244 164.239C171.244 168.31 168.736 170.939 164.855 170.939C162.352 170.939 161.343 170.188 153.507 162.507L144.907 154.075L141.765 155.482C130.575 160.496 117.541 157.598 108.938 148.185C103.817 142.581 101.933 137.438 101.921 129.022C101.913 123.337 102.205 121.713 103.888 118.091C106.523 112.42 109.097 109.165 113.507 105.928C121.69 99.9211 133.114 98.8301 142.343 103.173ZM124.235 110.449C107.028 116.583 106.001 139.74 122.602 147.28C124.533 148.157 127.367 148.656 130.48 148.666C141.705 148.704 149.915 140.373 149.915 128.946C149.915 115.875 136.374 106.122 124.235 110.449ZM111.893 170.939V176.133H106.699H101.506V170.939V165.746H106.699H111.893V170.939ZM131.182 170.939V176.133H125.988H120.795V170.939V165.746H125.988H131.182V170.939ZM111.893 192.454V197.647H106.699H101.506V192.454V187.261H106.699H111.893V192.454ZM131.182 192.454V197.647H125.988H120.795V192.454V187.261H125.988H131.182V192.454ZM150.471 192.454V197.647H145.278H140.084V192.454V187.261H145.278H150.471V192.454ZM169.389 192.454V197.276L164.01 197.495L158.632 197.713V192.981C158.632 190.379 158.868 188.014 159.157 187.725C159.446 187.437 161.866 187.297 164.536 187.416L169.389 187.632V192.454Z" fill="#69A168"/>
<path d="M181.8 70.6001C162.8 70.6001 147.3 55.1001 147.3 36.1001C147.3 17.1001 162.8 1.6001 181.8 1.6001C200.8 1.6001 216.3 17.1001 216.3 36.1001C216.3 55.1001 200.9 70.6001 181.8 70.6001Z" fill="white"/>
<path d="M181.8 3C200 3 214.8 17.8 214.8 36C214.8 54.2 200 69 181.8 69C163.6 69 148.8 54.2 148.8 36C148.8 17.8 163.6 3 181.8 3ZM181.8 0C161.9 0 145.8 16.1 145.8 36C145.8 55.9 161.9 72 181.8 72C201.7 72 217.8 55.9 217.8 36C217.8 16.1 201.7 0 181.8 0Z" fill="white"/>
<path d="M182.264 42.2645C182.088 42.2645 181.917 42.3004 181.766 42.3849L176.975 45.1154C176.665 45.2916 176.477 45.6247 176.477 45.9788V51.43C176.477 51.784 176.665 52.1165 176.975 52.2933L178.227 53.0048C178.834 53.3006 179.059 53.2959 179.335 53.2959C180.235 53.2959 180.749 52.7569 180.749 51.8201V46.4422C180.749 46.3661 180.682 46.3117 180.606 46.3117H180.006C179.929 46.3117 179.864 46.3675 179.864 46.4422V51.8229C179.864 52.2382 179.426 52.6559 178.715 52.3048L177.414 51.552C177.368 51.5273 177.333 51.4822 177.333 51.4316V45.9803C177.333 45.9287 177.368 45.876 177.414 45.8499L182.195 43.1292C182.239 43.1038 182.293 43.1038 182.337 43.1292L187.117 45.8499C187.163 45.8768 187.199 45.927 187.199 45.9803V51.4316C187.199 51.4836 187.172 51.5369 187.128 51.562L182.337 54.2827C182.295 54.3069 182.238 54.3069 182.195 54.2827L180.964 53.56C180.927 53.5388 180.877 53.5405 180.842 53.56C180.502 53.75 180.439 53.7721 180.12 53.8812C180.042 53.9081 179.922 53.9501 180.161 54.0821L181.768 55.0169C181.921 55.1043 182.091 55.1474 182.266 55.1474C182.444 55.1474 182.612 55.1055 182.765 55.0169L187.555 52.2962C187.865 52.1182 188.053 51.7869 188.053 51.433V45.9817C188.053 45.6276 187.865 45.2953 187.555 45.1184L182.765 42.3879C182.614 42.3033 182.442 42.2675 182.266 42.2675L182.264 42.2645ZM183.546 46.1598C182.182 46.1598 181.369 46.7328 181.369 47.6856C181.369 48.7181 182.176 49.0033 183.485 49.1311C185.051 49.2825 185.173 49.5095 185.173 49.8138C185.173 50.3416 184.747 50.5666 183.739 50.5666C182.473 50.5666 182.195 50.2547 182.102 49.6318C182.091 49.5651 182.039 49.5114 181.97 49.5114H181.348C181.31 49.5122 181.274 49.5273 181.248 49.5535C181.221 49.5797 181.206 49.6149 181.205 49.6519C181.205 50.4476 181.644 51.3886 183.738 51.3886C185.254 51.3886 186.128 50.8026 186.128 49.7723C186.128 48.7538 185.422 48.4785 183.951 48.2864C182.467 48.0911 182.324 47.9976 182.324 47.6539C182.324 47.3704 182.444 46.9912 183.545 46.9912C184.528 46.9912 184.891 47.2005 185.04 47.8546C185.053 47.916 185.108 47.9662 185.172 47.9662H185.794C185.832 47.9662 185.869 47.943 185.896 47.916C185.922 47.8871 185.94 47.8546 185.936 47.8155C185.84 46.689 185.079 46.1591 183.546 46.1591L183.546 46.1598Z" fill="#69A168"/>
<path d="M192.303 20.0002C192.25 20.0003 192.197 20.0141 192.151 20.0404C192.105 20.0671 192.066 20.1052 192.04 20.1509C192.013 20.1967 191.999 20.2486 191.998 20.3014V27.9811C191.998 28.0565 191.963 28.124 191.897 28.1618C191.864 28.1805 191.827 28.1903 191.79 28.1903C191.752 28.1903 191.715 28.1805 191.683 28.1618L190.412 27.4391C190.319 27.3861 190.214 27.3582 190.106 27.3582C189.999 27.3582 189.894 27.3861 189.801 27.4391L184.726 30.3302C184.537 30.4381 184.421 30.646 184.421 30.8622V36.6445C184.421 36.7503 184.449 36.8543 184.502 36.9459C184.556 37.0376 184.633 37.1136 184.726 37.1664L189.801 40.0577C189.894 40.1108 189.999 40.1387 190.106 40.1387C190.214 40.1387 190.319 40.1108 190.412 40.0577L195.487 37.1664C195.58 37.1136 195.657 37.0376 195.71 36.9459C195.764 36.8543 195.792 36.7503 195.792 36.6445V22.2288C195.792 22.0095 195.671 21.8037 195.477 21.6968L192.456 20.0302C192.409 20.0041 192.356 19.9996 192.303 20.0002ZM159.655 27.2181C159.558 27.222 159.467 27.2386 159.38 27.2884L154.305 30.1795C154.212 30.2322 154.135 30.3082 154.081 30.3999C154.028 30.4916 154 30.5956 154 30.7014L154.01 38.4616C154.01 38.5696 154.067 38.6698 154.163 38.7225C154.257 38.7784 154.374 38.7784 154.468 38.7225L157.479 37.0159C157.669 36.9043 157.794 36.7095 157.794 36.4941V32.8699C157.794 32.6537 157.909 32.4555 158.099 32.3481L159.381 31.6153C159.473 31.5622 159.579 31.5344 159.686 31.5349C159.793 31.5343 159.898 31.5621 159.991 31.6153L161.272 32.3477C161.462 32.4551 161.577 32.6535 161.577 32.8695V36.4935C161.577 36.7092 161.704 36.9051 161.892 37.0153L164.903 38.722C164.998 38.7778 165.114 38.7778 165.208 38.722C165.301 38.669 165.361 38.5689 165.361 38.4611L165.371 30.7011C165.371 30.5953 165.343 30.4911 165.29 30.3994C165.236 30.3077 165.159 30.2317 165.066 30.1792L159.991 27.2882C159.905 27.2386 159.813 27.2218 159.716 27.2179H159.655L159.655 27.2181ZM205.261 27.2884C205.154 27.2881 205.049 27.3158 204.956 27.3687L199.881 30.26C199.691 30.3681 199.575 30.5658 199.575 30.7818V36.5641C199.575 36.7815 199.699 36.9785 199.89 37.0859L204.925 39.9183C205.111 40.0229 205.338 40.0309 205.525 39.928L208.576 38.2515C208.673 38.1985 208.739 38.0994 208.739 37.9906C208.739 37.8818 208.682 37.7838 208.586 37.7297L203.48 34.8385C203.385 34.7846 203.318 34.6756 203.318 34.5674V32.7593C203.318 32.6513 203.386 32.5522 203.48 32.4984L205.067 31.5948C205.161 31.5409 205.277 31.5409 205.372 31.5948L206.96 32.4984C207.006 32.5247 207.045 32.5627 207.071 32.6086C207.098 32.6544 207.112 32.7064 207.112 32.7593V34.1848C207.112 34.2377 207.126 34.2897 207.153 34.3355C207.18 34.3813 207.218 34.4194 207.265 34.4457C207.36 34.4998 207.475 34.5001 207.57 34.4457L210.611 32.6993C210.8 32.591 210.916 32.3927 210.916 32.1775V30.7822C210.916 30.6764 210.888 30.5725 210.835 30.4809C210.781 30.3893 210.704 30.3132 210.611 30.2602L205.566 27.369C205.474 27.316 205.368 27.2883 205.261 27.2887L205.261 27.2884ZM190.086 31.6053C190.114 31.6051 190.142 31.612 190.167 31.6252L191.907 32.619C191.954 32.646 191.988 32.6958 191.988 32.7495V34.7372C191.988 34.7912 191.954 34.8408 191.907 34.8676L190.167 35.8615C190.12 35.888 190.062 35.888 190.015 35.8615L188.276 34.8676C188.228 34.8407 188.194 34.7909 188.194 34.7372V32.7492C188.194 32.6954 188.228 32.646 188.276 32.6188L190.015 31.6251C190.039 31.6115 190.059 31.6053 190.086 31.6053Z" fill="#404137"/>
<path d="M174.901 27.2581C174.794 27.2579 174.689 27.2856 174.596 27.3384L169.521 30.2196C169.331 30.3276 169.216 30.5356 169.216 30.7516V36.5339C169.216 36.6397 169.244 36.7437 169.297 36.8354C169.351 36.927 169.428 37.0031 169.521 37.0558L174.596 39.947C174.689 40.0001 174.794 40.0281 174.901 40.0281C175.008 40.0281 175.114 40.0001 175.206 39.947L180.282 37.0558C180.375 37.003 180.452 36.9269 180.505 36.8352C180.559 36.7436 180.587 36.6396 180.587 36.5338V30.7515C180.587 30.5352 180.471 30.3273 180.282 30.2195L175.206 27.3383C175.114 27.2852 175.008 27.2575 174.901 27.2579L174.901 27.2581ZM205.252 32.4181C205.231 32.4181 205.209 32.4181 205.19 32.4279L204.214 32.9902C204.196 33.0001 204.181 33.0147 204.17 33.0323C204.159 33.0499 204.153 33.0699 204.153 33.0905V34.1948C204.153 34.2364 204.177 34.2743 204.214 34.2953L205.19 34.8474C205.207 34.8576 205.227 34.8631 205.246 34.8631C205.266 34.8631 205.285 34.8576 205.302 34.8474L206.279 34.2953C206.315 34.2748 206.34 34.2364 206.34 34.1948V33.0905C206.34 33.0489 206.315 33.011 206.279 32.99L205.302 32.4277C205.284 32.4171 205.272 32.418 205.251 32.418L205.252 32.4181Z" fill="#69A168"/>
</svg>
