<svg width="277" height="277" viewBox="0 0 277 277" fill="none" xmlns="http://www.w3.org/2000/svg">
<path fill-rule="evenodd" clip-rule="evenodd" d="M11.1355 0.780692C6.77449 2.05369 2.08149 7.00369 0.829494 11.6527C0.129494 14.2527 -0.123506 56.4857 0.0554941 141.027C0.319494 265.941 0.330494 266.554 2.37949 269.364C3.51149 270.917 6.43649 273.212 8.87949 274.464L13.3205 276.742L105.82 276.447C198.227 276.152 198.328 276.15 206.32 273.905C238.473 264.876 265.551 237.596 274.064 205.655L276.32 197.187V103.687V10.1867L274.09 7.05969C272.863 5.34069 270.163 3.09069 268.09 2.05969C264.471 0.261692 259.309 0.179692 139.32 0.018692C64.7365 -0.0813081 13.0355 0.226692 11.1355 0.780692ZM259.079 11.7417C266.168 13.7097 265.865 10.7237 265.578 76.0817L265.32 134.803L261.122 128.418C255.162 119.352 238.919 104.152 229.464 98.7927C213.985 90.0197 200.48 86.5347 181.82 86.4977C154.21 86.4427 133.482 94.9237 114.27 114.137C95.2355 133.171 86.6545 153.954 86.5845 181.187C86.5305 202.61 91.8205 219.998 103.317 236.187C108.764 243.857 123.954 258.507 130.37 262.278L135.32 265.187L77.0365 265.445C13.4395 265.727 13.9425 265.768 11.7775 260.074C10.3255 256.254 10.4965 20.9137 11.9545 16.7307C14.1385 10.4657 7.8205 10.7687 137.32 10.7317C216.339 10.7087 256.562 11.0427 259.079 11.7417ZM53.6795 32.7457C46.9505 33.8247 42.2835 36.3537 37.9625 41.2627C28.1295 52.4337 28.3525 74.7197 38.4005 85.0657C44.4835 91.3297 49.1085 93.1627 58.8205 93.1607C66.0715 93.1587 68.0555 92.7717 72.3205 90.5217C75.0705 89.0717 78.2915 86.8277 79.4775 85.5357C87.4495 76.8557 89.4955 60.9057 84.3015 47.9287C80.0645 37.3447 66.6075 30.6717 53.6795 32.7457ZM69.1875 42.0557C72.5685 44.0377 74.3355 46.0397 76.3685 50.1947C78.8305 55.2267 79.0265 56.4857 78.6345 64.6917C78.2525 72.6837 77.8745 74.1487 75.2215 77.9247C71.2205 83.6167 65.6815 86.6557 59.3205 86.6487C45.7495 86.6337 38.0865 76.9187 39.0145 60.9047C39.3485 55.1217 40.0875 51.9837 41.8555 48.8387C47.2635 39.2157 59.2615 36.2387 69.1875 42.0557ZM191.865 115.344C211.112 124.401 219.846 147.089 211.238 165.669L208.778 170.975L219.799 182.254C230.221 192.919 230.82 193.756 230.82 197.655C230.82 203.143 227.44 206.687 222.208 206.687C218.835 206.687 217.475 205.675 206.913 195.321L195.32 183.955L191.085 185.852C176.003 192.61 158.434 188.704 146.839 176.016C139.936 168.463 137.396 161.53 137.38 150.187C137.368 142.524 137.762 140.335 140.031 135.452C143.582 127.809 147.052 123.421 152.996 119.058C164.026 110.961 179.425 109.49 191.865 115.344ZM167.456 125.152C144.263 133.42 142.879 164.634 165.255 174.797C167.858 175.979 171.678 176.651 175.874 176.665C191.005 176.716 202.07 165.487 202.07 150.084C202.07 132.465 183.82 119.319 167.456 125.152ZM150.82 206.687V213.687H143.82H136.82V206.687V199.687H143.82H150.82V206.687ZM176.82 206.687V213.687H169.82H162.82V206.687V199.687H169.82H176.82V206.687ZM150.82 235.687V242.687H143.82H136.82V235.687V228.687H143.82H150.82V235.687ZM176.82 235.687V242.687H169.82H162.82V235.687V228.687H169.82H176.82V235.687ZM202.82 235.687V242.687H195.82H188.82V235.687V228.687H195.82H202.82V235.687ZM228.32 235.687V242.187L221.07 242.481L213.82 242.775V236.397C213.82 232.89 214.138 229.702 214.528 229.313C214.917 228.924 218.179 228.736 221.778 228.896L228.32 229.187V235.687Z" fill="#0057A0"/>
<path d="M92.5758 89V61.6742H97.6816V66.1218H98.0196C98.5889 64.6155 99.52 63.4414 100.813 62.5993C102.105 61.7454 103.653 61.3184 105.456 61.3184C107.282 61.3184 108.812 61.7454 110.046 62.5993C111.291 63.4532 112.21 64.6274 112.803 66.1218H113.088C113.74 64.663 114.778 63.5007 116.201 62.6349C117.624 61.7572 119.32 61.3184 121.289 61.3184C123.768 61.3184 125.79 62.0952 127.356 63.6489C128.933 65.2026 129.722 67.545 129.722 70.6761V89H124.403V71.1742C124.403 69.324 123.899 67.9838 122.89 67.1536C121.882 66.3234 120.678 65.9083 119.279 65.9083C117.547 65.9083 116.201 66.442 115.241 67.5094C114.28 68.565 113.8 69.9229 113.8 71.5834V89H108.498V70.8362C108.498 69.3537 108.036 68.1617 107.11 67.2603C106.185 66.359 104.982 65.9083 103.499 65.9083C102.491 65.9083 101.56 66.1751 100.706 66.7088C99.8639 67.2307 99.1819 67.9601 98.6601 68.897C98.1501 69.834 97.8951 70.9192 97.8951 72.1526V89H92.5758ZM136.851 89V61.6742H141.993V66.015H142.277C142.775 64.5444 143.653 63.388 144.91 62.5459C146.179 61.692 147.614 61.265 149.215 61.265C149.548 61.265 149.939 61.2769 150.39 61.3006C150.852 61.3243 151.214 61.354 151.475 61.3896V66.4776C151.261 66.4183 150.882 66.353 150.336 66.2819C149.791 66.1989 149.245 66.1573 148.7 66.1573C147.442 66.1573 146.322 66.4242 145.337 66.9579C144.365 67.4797 143.594 68.2091 143.024 69.1461C142.455 70.0712 142.171 71.1267 142.171 72.3128V89H136.851Z" fill="#0057A0"/>
</svg>
