<svg width="320" height="320" viewBox="0 0 320 320" fill="none" xmlns="http://www.w3.org/2000/svg">
<path d="M154.2 286.9C222.518 286.9 277.9 231.518 277.9 163.2C277.9 94.8824 222.518 39.5 154.2 39.5C85.8824 39.5 30.5 94.8824 30.5 163.2C30.5 231.518 85.8824 286.9 154.2 286.9Z" stroke="#EFEFEF" stroke-miterlimit="10" stroke-linecap="round" stroke-linejoin="round" stroke-dasharray="4 4"/>
<path d="M98 92H296V221C296 259.66 264.66 291 226 291H98V92Z" fill="white"/>
<path fill-rule="evenodd" clip-rule="evenodd" d="M101.261 89.5793C98.0259 90.5237 94.5442 94.196 93.6154 97.6451C93.0961 99.574 92.9084 130.906 93.0412 193.627C93.237 286.299 93.2452 286.754 94.7653 288.839C95.6051 289.991 97.7752 291.694 99.5876 292.623L102.882 294.313L171.507 294.094C240.063 293.875 240.138 293.873 246.068 292.208C269.922 285.509 290.01 265.27 296.326 241.574L298 235.291V165.924V96.5575L296.346 94.2376C295.435 92.9623 293.432 91.293 291.894 90.5281C289.209 89.1942 285.379 89.1334 196.361 89.0139C141.027 88.9397 102.671 89.1682 101.261 89.5793ZM285.209 97.7111C290.468 99.1712 290.244 96.9559 290.031 145.444L289.839 189.009L286.725 184.272C282.303 177.546 270.252 166.269 263.238 162.294C251.754 155.785 241.735 153.199 227.891 153.172C207.408 153.131 192.03 159.423 177.776 173.677C163.654 187.798 157.288 203.217 157.236 223.421C157.196 239.315 161.121 252.215 169.65 264.225C173.692 269.915 184.961 280.784 189.721 283.582L193.393 285.74L150.153 285.931C102.971 286.141 103.344 286.171 101.738 281.947C100.66 279.113 100.787 104.516 101.869 101.412C103.489 96.7645 98.802 96.9893 194.877 96.9618C253.501 96.9448 283.342 97.1925 285.209 97.7111ZM132.824 113.294C127.832 114.094 124.37 115.971 121.164 119.613C113.869 127.9 114.034 144.434 121.489 152.11C126.002 156.757 129.433 158.117 136.638 158.115C142.018 158.114 143.49 157.827 146.654 156.157C148.694 155.082 151.084 153.417 151.964 152.458C157.878 146.019 159.396 134.186 155.543 124.558C152.399 116.706 142.416 111.755 132.824 113.294ZM144.33 120.201C146.838 121.671 148.149 123.157 149.657 126.239C151.484 129.972 151.629 130.906 151.338 136.994C151.055 142.924 150.774 144.01 148.806 146.812C145.838 151.035 141.729 153.289 137.009 153.284C126.941 153.273 121.256 146.065 121.945 134.185C122.192 129.894 122.741 127.566 124.052 125.233C128.064 118.094 136.966 115.885 144.33 120.201ZM235.343 174.573C249.623 181.292 256.102 198.124 249.715 211.908L247.891 215.845L256.068 224.213C263.8 232.125 264.244 232.746 264.244 235.639C264.244 239.71 261.736 242.339 257.855 242.339C255.352 242.339 254.343 241.588 246.507 233.907L237.907 225.475L234.765 226.882C223.575 231.896 210.541 228.998 201.938 219.585C196.817 213.981 194.933 208.838 194.921 200.422C194.913 194.737 195.205 193.113 196.888 189.491C199.523 183.82 202.097 180.565 206.507 177.328C214.69 171.321 226.114 170.23 235.343 174.573ZM217.235 181.849C200.028 187.983 199.001 211.14 215.602 218.68C217.533 219.557 220.367 220.056 223.48 220.066C234.705 220.104 242.915 211.773 242.915 200.346C242.915 187.275 229.374 177.522 217.235 181.849ZM204.893 242.339V247.533H199.699H194.506V242.339V237.146H199.699H204.893V242.339ZM224.182 242.339V247.533H218.988H213.795V242.339V237.146H218.988H224.182V242.339ZM204.893 263.854V269.047H199.699H194.506V263.854V258.661H199.699H204.893V263.854ZM224.182 263.854V269.047H218.988H213.795V263.854V258.661H218.988H224.182V263.854ZM243.471 263.854V269.047H238.278H233.084V263.854V258.661H238.278H243.471V263.854ZM262.389 263.854V268.676L257.01 268.895L251.632 269.113V264.381C251.632 261.779 251.868 259.414 252.157 259.125C252.446 258.837 254.866 258.697 257.536 258.816L262.389 259.032V263.854Z" fill="#FECD36"/>
<path d="M274.8 142C255.8 142 240.3 126.5 240.3 107.5C240.3 88.5 255.8 73 274.8 73C293.8 73 309.3 88.5 309.3 107.5C309.3 126.5 293.9 142 274.8 142Z" fill="white"/>
<path d="M257.258 89.2006C257.144 89.3081 257.029 89.4944 257 89.6091C256.965 89.7882 259.859 122.856 260.003 123.874C260.096 124.504 259.702 124.368 267.426 126.568C271.267 127.664 274.52 128.56 274.656 128.56C274.792 128.56 278.045 127.664 281.886 126.568C289.488 124.397 289.216 124.497 289.309 123.946C289.323 123.817 290.026 116.078 290.85 106.749C292.49 88.348 292.419 89.4443 291.996 89.1433C291.795 89 291.731 89 274.634 89H257.473L257.258 89.2006ZM272.936 107.888V119.037L272.743 118.987C272.628 118.966 270.514 118.378 268.042 117.69C265.563 117.002 263.528 116.443 263.506 116.443C263.492 116.443 263.478 115.505 263.478 114.365C263.478 113.219 263.499 112.287 263.528 112.287C263.585 112.287 269.26 113.857 269.404 113.914C269.482 113.943 269.497 112.452 269.497 105.344V96.7386H271.216H272.936V107.888ZM286.622 96.9321C286.622 97.2115 286.407 99.8197 286.364 100.013L286.335 100.178H283.075H279.815V103.617V107.057H279.965C280.051 107.057 281.391 106.878 282.946 106.655C284.501 106.433 285.784 106.269 285.798 106.283C285.819 106.297 285.633 108.647 285.39 111.506L284.938 116.701L280.818 117.826C278.554 118.45 276.626 118.98 276.54 119.001L276.375 119.037V117.11V115.182L279.084 114.437C280.567 114.029 281.886 113.67 282.007 113.635L282.23 113.577L282.323 111.965C282.373 111.076 282.402 110.338 282.387 110.317C282.366 110.303 281.054 110.51 279.464 110.79C277.88 111.062 276.533 111.284 276.476 111.284C276.39 111.284 276.375 110.245 276.375 104.011V96.7386H281.499H286.622V96.9321Z" fill="#FECD36"/>
<path d="M274.8 74.4C293 74.4 307.8 89.2 307.8 107.4C307.8 125.6 293 140.4 274.8 140.4C256.6 140.4 241.8 125.6 241.8 107.4C241.8 89.2 256.6 74.4 274.8 74.4ZM274.8 71.4C254.9 71.4 238.8 87.5 238.8 107.4C238.8 127.3 254.9 143.4 274.8 143.4C294.7 143.4 310.8 127.3 310.8 107.4C310.8 87.5 294.7 71.4 274.8 71.4Z" fill="white"/>
<path d="M212.9 47.1L231.2 48.2L229.8 65.2L222.6 70.2L215.4 66.7L212.9 47.1Z" fill="#4296D2"/>
<path d="M159.3 50.4H163.4L164.8 47.1L165.4 27.7L158.8 23.9H146.3L145.3 38.1L145.8 50L159.3 50.4Z" fill="#4296D2"/>
<path d="M89 54.9L82.1 48.7L70.4 49.1L69.9 74.9L70.7 75.8H89V54.9Z" fill="#4296D2"/>
<path d="M46.5 116.5L40.3 110.3H28.1V137.2L46.5 137.6V116.5Z" fill="#4296D2"/>
<path d="M51 191.1L44.9 185.6L28.7 185.3L27.2 187.1V208.7L50.5 209.1L51 191.1Z" fill="#4296D2"/>
<path d="M78.8 247.1L72.8 241.1L58.4 240.7L59 268H77.7L78.8 247.1Z" fill="#4296D2"/>
<path d="M210.8 45.1H233.3L231.2 68.3L222 71.4L212.8 68.3L210.8 45.1ZM228.8 52.6L229.1 49.8H215L215.7 58.3H225.5L225.1 61.9L222 62.7L218.8 61.9L218.6 59.7H215.8L216.2 64.1L222 65.7H222.1L227.8 64.1L228.6 55.4H218.3L218.1 52.5L228.8 52.6Z" fill="#EFEFEF"/>
<path d="M165.4 27.7C166 28.2 166.2 28.9 166.2 29.7V49.2C166.2 50 165.9 50.6 165.4 51.2C164.8 51.7 164.2 52 163.4 52H146.5C145.7 52 145.1 51.7 144.5 51.2C143.9 50.7 143.7 50 143.7 49.2V24.8C143.7 24 144 23.4 144.5 22.8C145 22.2 145.7 22 146.5 22H158.4C159.2 22 159.8 22.3 160.4 22.8L165.4 27.7ZM146.6 49.1H163.5V32.2H157.4C157 32.2 156.7 32.1 156.4 31.8C156.1 31.5 156 31.2 156 30.8V24.7H146.6V49.1ZM149.3 33.1C149.9 32.6 150.5 32.3 151.3 32.3C152.1 32.3 152.7 32.6 153.3 33.1C153.9 33.6 154.1 34.3 154.1 35.1C154.1 35.9 153.8 36.6 153.3 37.1C152.7 37.6 152.1 37.9 151.3 37.9C150.5 37.9 149.9 37.6 149.3 37.1C148.7 36.6 148.5 35.9 148.5 35.1C148.5 34.3 148.7 33.6 149.3 33.1ZM148.4 46.3V42.5L150.7 40.2C151 39.9 151.3 39.9 151.6 40.2L153.9 42.5L159.1 37.3C159.4 37 159.7 37 160 37.3L161.4 38.7V46.2L148.4 46.3ZM163.2 29.4L158.8 25V29.5C158.8 29.4 163.2 29.4 163.2 29.4Z" fill="#EFEFEF"/>
<path d="M90 53.4C90.6 53.9 90.8 54.6 90.8 55.4V74.9C90.8 75.7 90.5 76.3 90 76.9C89.4 77.5 88.8 77.7 88 77.7H71.1C70.3 77.7 69.7 77.4 69.1 76.9C68.5 76.3 68.3 75.7 68.3 74.9V50.5C68.3 49.7 68.6 49.1 69.1 48.5C69.7 48 70.3 47.7 71.1 47.7H83C83.8 47.7 84.4 48 85 48.5L90 53.4ZM71.1 74.8H88V58H81.9C81.5 58 81.2 57.9 80.9 57.6C80.6 57.3 80.5 57 80.5 56.6V50.5H71.1V74.8ZM83.5 60.8C83.8 60.8 84 60.9 84.1 61.1C84.2 61.3 84.2 61.6 84.1 61.8C82.7 64.2 81.8 65.7 81.4 66.4L84.1 71C84.3 71.2 84.3 71.5 84.1 71.7C84 71.9 83.8 72 83.5 72H81.8C81.5 72 81.3 71.9 81.2 71.7C81.1 71.6 80.6 70.5 79.5 68.3C79 69.4 78.5 70.5 77.8 71.7C77.7 71.9 77.5 72 77.2 72H75.5C75.2 72 75 71.9 74.9 71.7C74.8 71.5 74.8 71.2 74.9 71L77.6 66.4L75 61.8C74.8 61.6 74.8 61.3 75 61.1C75.2 60.9 75.3 60.8 75.6 60.8H77.3C77.6 60.8 77.8 60.9 77.9 61.1C78.2 61.8 78.8 62.9 79.5 64.5C79.8 63.6 80.4 62.5 81.2 61.1C81.3 60.9 81.5 60.8 81.8 60.8H83.5ZM87.7 55.2L83.3 50.7V55.2H87.7Z" fill="#EFEFEF"/>
<path d="M47.5 115C48 115.6 48.3 116.2 48.3 117V136.4C48.3 137.2 48 137.8 47.5 138.4C47 139 46.3 139.2 45.5 139.2H28.6C27.8 139.2 27.1 138.9 26.6 138.4C26.1 137.8 25.8 137.2 25.8 136.4V112C25.8 111.2 26.1 110.6 26.6 110C27.1 109.4 27.8 109.2 28.6 109.2H40.6C41.4 109.2 42 109.5 42.6 110L47.5 115ZM28.6 136.5H45.5V119.6H39.4C39 119.6 38.7 119.5 38.4 119.2C38.1 118.9 38 118.6 38 118.2V112.1H28.6V136.5ZM41.5 124.3H42.4C42.6 124.3 42.8 124.4 43 124.6C43.1 124.8 43.2 125 43.2 125.2C42.8 126.7 42.1 129.3 41.2 133.2C41.1 133.6 40.9 133.7 40.5 133.7H39C38.6 133.7 38.4 133.5 38.3 133.2C38 132.1 37.7 130.7 37.3 129L37.1 128C37.1 128.3 37 128.6 36.9 129L35.9 133.2C35.8 133.6 35.6 133.7 35.3 133.7H33.8C33.4 133.7 33.2 133.5 33.1 133.2C33 132.7 32.7 131.4 32.2 129.4C31.7 127.3 31.4 125.9 31.2 125.3C31.1 125.1 31.2 124.9 31.3 124.7C31.5 124.5 31.6 124.4 31.8 124.4H32.8C33.2 124.4 33.4 124.6 33.5 125C34.2 128.7 34.6 130.7 34.6 130.8C34.6 130.8 34.6 130.9 34.7 131C34.7 130.8 35.2 128.7 36.1 124.9C36.2 124.6 36.4 124.4 36.8 124.4H37.6C38 124.4 38.2 124.6 38.3 124.9C39.2 128.7 39.7 130.6 39.7 130.8C39.7 130.8 39.7 130.9 39.7 131C39.7 130.8 40.2 128.8 40.9 125C40.9 124.5 41.1 124.3 41.5 124.3ZM45.3 116.8L40.8 112.4V116.8H45.3Z" fill="#EFEFEF"/>
<path d="M51.2 190.1C51.7 190.7 52 191.3 52 192.1V207.8C52 208.6 51.7 209.2 51.2 209.8C50.7 210.4 50 210.6 49.2 210.6H28.6C27.8 210.6 27.1 210.3 26.6 209.8C26.1 209.2 25.8 208.6 25.8 207.8V187.2C25.8 186.4 26.1 185.8 26.6 185.2C27.1 184.6 27.8 184.4 28.6 184.4H44.3C45.1 184.4 45.7 184.7 46.3 185.2L51.2 190.1ZM48.9 207.8C49.1 207.8 49.2 207.7 49.2 207.4V192.2C49.2 192.1 49.2 192 49.1 192L44.5 187.4V193.3C44.5 193.7 44.4 194 44.1 194.3C43.8 194.6 43.5 194.7 43.1 194.7H32.8C32.4 194.7 32.1 194.6 31.8 194.3C31.5 194 31.4 193.7 31.4 193.3V187.2H29C28.8 187.2 28.6 187.3 28.6 187.6V207.5C28.6 207.7 28.7 207.9 29 207.9L48.9 207.8ZM35.3 197.6C36.3 196.6 37.5 196.1 38.9 196.1C40.3 196.1 41.5 196.6 42.5 197.6C43.5 198.6 44 199.8 44 201.2C44 202.6 43.5 203.8 42.5 204.8C41.5 205.8 40.3 206.3 38.9 206.3C37.5 206.3 36.3 205.8 35.3 204.8C34.3 203.8 33.8 202.6 33.8 201.2C33.8 199.8 34.3 198.6 35.3 197.6ZM41.8 187.1H34.3V191.8H41.8V187.1ZM37.3 202.9C37.8 203.3 38.3 203.6 39 203.6C39.7 203.6 40.2 203.4 40.7 202.9C41.2 202.5 41.4 201.9 41.4 201.2C41.4 200.5 41.2 200 40.7 199.5C40.2 199.1 39.7 198.8 39 198.8C38.3 198.8 37.8 199 37.3 199.5C36.8 199.9 36.6 200.5 36.6 201.2C36.6 201.9 36.8 202.4 37.3 202.9Z" fill="#EFEFEF"/>
<path d="M79.3 245.6C79.9 246.2 80.1 246.8 80.1 247.6V267C80.1 267.8 79.8 268.4 79.3 269C78.8 269.6 78.1 269.8 77.3 269.8H60.4C59.6 269.8 58.9 269.5 58.4 269C57.9 268.5 57.6 267.8 57.6 267V242.6C57.6 241.8 57.9 241.2 58.4 240.6C58.9 240 59.6 239.8 60.4 239.8H72.4C73.2 239.8 73.8 240.1 74.4 240.6L79.3 245.6ZM77.3 267V250.1H71.2C70.8 250.1 70.5 250 70.2 249.7C69.9 249.4 69.8 249.1 69.8 248.7V242.6H60.4V267H77.3ZM66.4 260.3C66.6 260.5 66.6 260.8 66.4 261.1L65.4 262.1C65.3 262.2 65.2 262.3 65 262.3C64.9 262.3 64.8 262.2 64.7 262.1L61.4 258.9C61.1 258.7 61.1 258.4 61.4 258.2L64.7 255C65 254.7 65.2 254.7 65.5 255L66.5 256V256.1C66.7 256.3 66.7 256.6 66.5 256.8L64.6 258.5L66.4 260.3ZM69.9 252.4L71.3 252.8C71.6 252.9 71.8 253.1 71.6 253.4L68.4 264.4C68.3 264.8 68.1 264.9 67.8 264.8L66.4 264.4C66.1 264.3 65.9 264.1 66.1 263.8L69.3 252.8C69.4 252.4 69.6 252.3 69.9 252.4ZM71.3 256.9C71.1 256.7 71.1 256.4 71.3 256.1L72.3 255C72.5 254.7 72.8 254.7 73.1 255L76.4 258.2C76.7 258.4 76.7 258.7 76.4 258.9L73.1 262.1C72.8 262.4 72.6 262.4 72.3 262.1L71.3 261.1V261C71.1 260.8 71.1 260.5 71.3 260.3L73.2 258.6L71.3 256.9ZM72.6 242.9V247.3H77L72.6 242.9Z" fill="#EFEFEF"/>
</svg>
