<?xml version="1.0" standalone="no"?>
<!DOCTYPE svg PUBLIC "-//W3C//DTD SVG 20010904//EN"
 "http://www.w3.org/TR/2001/REC-SVG-20010904/DTD/svg10.dtd">
<svg version="1.0" xmlns="http://www.w3.org/2000/svg"
 width="700.000000pt" height="700.000000pt" viewBox="0 0 700.000000 700.000000"
 preserveAspectRatio="xMidYMid meet">
<metadata>
Created by potrace 1.11, written by Peter Selinger 2001-2013
</metadata>
<g transform="translate(0.000000,700.000000) scale(0.100000,-0.100000)"
fill="#000000" stroke="none">
<path d="M3909 6936 c-2 -2 -44 -6 -94 -9 -113 -8 -296 -32 -395 -52 -14 -3
-41 -8 -60 -11 -19 -4 -42 -8 -50 -9 -52 -10 -272 -70 -360 -99 -256 -83 -391
-144 -678 -306 -84 -48 -291 -200 -392 -289 -410 -362 -720 -863 -849 -1376
-28 -114 -34 -138 -46 -210 -3 -16 -7 -40 -9 -52 -5 -23 -16 -120 -22 -188 -6
-70 -5 -309 1 -386 24 -292 106 -564 239 -794 128 -221 339 -434 583 -587 176
-111 312 -164 548 -213 17 -4 93 -8 170 -10 251 -7 461 41 690 158 76 38 204
114 215 127 3 3 23 19 45 35 59 43 193 174 224 219 43 63 80 130 75 137 -2 4
-28 1 -57 -6 -149 -39 -411 -53 -557 -30 -170 26 -347 95 -484 187 -90 62
-254 231 -318 328 -75 113 -163 301 -188 401 -56 220 -73 341 -74 519 0 103
10 276 18 288 2 4 7 34 10 67 13 118 82 353 152 517 122 287 283 519 540 782
79 80 276 236 418 330 102 68 350 197 480 251 110 46 306 115 306 109 0 -3 9
0 20 6 11 6 98 30 194 54 95 24 183 49 195 55 34 19 26 36 -21 48 -25 6 -463
15 -469 9z"/>
<path d="M3845 6034 c-49 -7 -124 -20 -165 -29 -41 -9 -86 -18 -99 -21 -35 -7
-186 -60 -261 -91 -288 -121 -578 -376 -760 -670 -86 -139 -179 -365 -195
-474 -4 -24 -8 -46 -10 -50 -8 -12 -17 -117 -19 -212 -5 -220 43 -429 148
-650 116 -243 331 -491 495 -571 19 -9 35 -15 37 -13 1 1 -6 46 -17 100 -94
479 12 874 314 1170 211 206 452 320 825 392 115 22 461 23 567 1 11 -2 40 -7
65 -11 218 -34 500 -131 694 -237 38 -21 71 -38 73 -38 9 0 225 -149 293 -203
290 -229 561 -571 734 -927 55 -114 69 -144 116 -265 50 -125 87 -246 136
-435 51 -199 58 -220 78 -220 24 0 38 98 38 273 1 149 -8 346 -17 407 -2 14
-7 48 -10 75 -3 28 -8 70 -11 95 -2 25 -7 56 -10 70 -3 14 -8 36 -10 50 -13
78 -28 146 -50 238 -14 57 -27 111 -29 120 -2 9 -26 85 -54 168 -255 766 -728
1327 -1426 1690 -221 116 -527 216 -770 253 -38 6 -88 13 -110 17 -80 13 -498
12 -590 -2z"/>
<path d="M4288 4654 c-396 -51 -846 -318 -1009 -599 -35 -61 -36 -75 -6 -69
377 78 658 58 925 -68 215 -102 424 -310 544 -543 93 -180 153 -386 175 -595
16 -144 7 -411 -16 -540 -6 -30 -12 -66 -15 -80 -10 -61 -48 -202 -75 -280
-119 -345 -310 -650 -571 -910 -137 -138 -164 -160 -306 -267 -323 -240 -687
-406 -1154 -524 -202 -52 -210 -54 -210 -71 0 -16 60 -35 123 -38 182 -9 462
0 615 21 42 5 95 12 117 15 22 3 47 7 55 9 8 2 35 7 60 10 61 9 166 31 264 56
45 12 90 23 102 25 29 5 342 112 384 131 19 9 64 29 100 45 247 112 515 281
695 438 68 60 271 266 321 326 190 230 352 500 454 759 31 77 88 247 95 282 1
10 10 45 18 78 47 186 73 404 71 595 -1 127 -11 297 -19 309 -2 4 -6 31 -10
61 -9 72 -47 224 -84 330 -80 233 -191 415 -362 591 -370 382 -827 561 -1281
503z"/>
<path d="M93 4422 c-26 -16 -32 -100 -28 -352 2 -140 6 -271 8 -290 3 -19 8
-62 12 -95 3 -33 8 -71 10 -85 10 -64 25 -157 30 -180 3 -14 8 -41 11 -60 20
-114 96 -385 146 -520 118 -319 309 -664 474 -855 14 -16 46 -55 72 -85 199
-236 511 -482 812 -641 204 -109 526 -225 700 -253 19 -3 46 -8 60 -11 14 -3
77 -12 140 -21 163 -23 559 -22 643 2 10 3 32 7 50 10 166 21 469 125 602 208
137 85 214 146 315 246 128 127 143 144 216 245 108 150 177 285 228 444 19
58 37 124 40 146 3 22 10 69 16 105 15 96 5 318 -19 430 -61 292 -213 574
-417 777 -77 76 -175 148 -216 158 l-25 7 17 -84 c26 -123 32 -180 35 -308 11
-473 -213 -858 -635 -1092 -113 -62 -298 -131 -415 -154 -168 -33 -230 -39
-405 -39 -213 0 -306 11 -515 60 -569 134 -1114 536 -1459 1075 -76 117 -77
119 -133 227 -126 240 -222 500 -298 810 -38 157 -51 188 -72 175z"/>
</g>
</svg>
