<?xml version="1.0" standalone="no"?>
<!DOCTYPE svg PUBLIC "-//W3C//DTD SVG 20010904//EN"
 "http://www.w3.org/TR/2001/REC-SVG-20010904/DTD/svg10.dtd">
<svg version="1.0" xmlns="http://www.w3.org/2000/svg"
 width="700.000000pt" height="700.000000pt" viewBox="0 0 700.000000 700.000000"
 preserveAspectRatio="xMidYMid meet">
<metadata>
Created by potrace 1.11, written by Peter Selinger 2001-2013
</metadata>
<g transform="translate(0.000000,700.000000) scale(0.100000,-0.100000)"
fill="#000000" stroke="none">
<path d="M3477 6564 c-1 -1 -28 -4 -59 -8 -204 -21 -387 -87 -563 -203 -210
-138 -365 -316 -476 -548 -88 -183 -131 -379 -131 -590 0 -222 44 -411 141
-610 153 -311 404 -542 717 -660 409 -154 887 -81 1229 188 280 220 451 512
510 872 13 77 14 343 2 410 -3 17 -8 44 -11 62 -11 61 -38 156 -62 219 -178
473 -602 809 -1084 860 -53 5 -209 11 -213 8z"/>
<path d="M1582 6465 c-452 -79 -807 -409 -929 -865 -14 -54 -17 -71 -29 -160
-18 -138 -6 -299 31 -445 115 -451 498 -800 944 -863 60 -8 265 -8 318 0 112
18 288 73 317 99 5 4 -5 25 -21 46 -140 179 -247 435 -289 693 -10 61 -13 363
-4 410 5 25 11 65 15 90 23 160 117 397 220 555 39 60 115 158 165 212 l52 56
-47 29 c-92 57 -238 113 -360 139 -83 17 -295 19 -383 4z"/>
<path d="M5209 6476 c-2 -2 -26 -6 -54 -9 -114 -13 -285 -72 -397 -138 -29
-17 -54 -32 -55 -33 -1 -1 8 -13 20 -26 219 -239 345 -480 408 -780 27 -134
34 -391 13 -525 -16 -102 -56 -251 -91 -340 -39 -99 -135 -275 -173 -320 -10
-11 -25 -32 -34 -47 l-17 -26 46 -21 c50 -22 161 -57 210 -65 17 -3 41 -8 55
-12 14 -3 81 -7 150 -8 186 -4 322 24 488 100 307 143 543 431 632 773 59 226
43 512 -39 727 -115 299 -364 562 -628 664 -32 12 -67 26 -78 30 -31 12 -135
39 -180 45 -46 7 -271 15 -276 11z"/>
<path d="M669 4036 c-2 -2 -27 -6 -55 -10 -190 -22 -335 -162 -393 -378 -11
-40 -23 -93 -27 -118 -10 -63 -11 -1505 -2 -1559 43 -242 423 -473 1067 -650
62 -18 115 -30 117 -28 2 1 5 442 7 978 1 535 6 985 10 998 67 236 201 388
410 467 l62 24 -45 -6 c-25 -3 -83 -11 -130 -19 -47 -8 -110 -17 -140 -21 -30
-3 -58 -8 -62 -10 -4 -3 -51 -7 -105 -9 -100 -4 -213 11 -289 38 -124 45 -273
149 -356 249 -40 48 -59 63 -69 54z"/>
<path d="M6293 4001 c-64 -86 -199 -193 -299 -237 -82 -37 -104 -43 -208 -63
-50 -9 -193 -8 -256 3 -37 6 -91 14 -149 22 -47 6 -93 14 -111 19 -8 2 -40 6
-70 9 l-55 6 45 -15 c162 -52 310 -184 381 -340 64 -141 62 -104 62 -1158 1
-939 1 -957 20 -951 10 3 60 17 110 30 447 118 832 304 972 467 20 23 50 71
68 106 l31 64 1 705 c0 648 -4 845 -19 912 -3 14 -8 35 -10 46 -7 37 -35 113
-55 152 -74 144 -200 231 -361 250 l-70 8 -27 -35z"/>
<path d="M2170 3541 c-253 -69 -430 -264 -476 -526 -4 -22 -7 -488 -7 -1035
l0 -995 25 -50 c56 -109 165 -190 363 -268 104 -40 259 -84 400 -113 101 -20
126 -24 165 -29 25 -3 56 -7 70 -10 36 -7 95 -14 175 -21 39 -3 86 -7 105 -9
262 -27 831 -27 1095 0 22 2 69 6 105 10 69 6 95 10 200 27 36 5 79 12 95 15
92 14 275 60 379 94 245 82 394 184 448 307 21 47 21 57 21 1047 0 750 -3
1015 -12 1058 -59 276 -290 488 -562 513 l-66 6 -59 -48 c-215 -175 -499 -295
-697 -294 -70 1 -116 24 -216 108 -99 84 -137 104 -200 104 -72 -1 -143 -33
-244 -111 -111 -84 -171 -106 -260 -98 -142 14 -329 97 -551 245 -157 104
-170 107 -296 73z m335 -1305 c28 -4 69 -11 92 -16 22 -5 63 -12 90 -15 26 -2
71 -7 98 -9 261 -26 930 -27 1295 -1 25 2 83 6 130 9 90 6 182 16 215 23 11 2
73 6 138 8 160 7 199 -15 210 -117 6 -59 -16 -104 -62 -127 -31 -16 -50 -22
-106 -37 -8 -2 -108 -19 -225 -39 -14 -3 -54 -7 -90 -10 -36 -3 -85 -8 -110
-11 -225 -25 -1092 -25 -1341 1 -24 2 -74 7 -111 10 -37 3 -77 8 -90 10 -13 2
-52 9 -88 14 -136 22 -221 60 -247 111 -28 55 -6 157 39 181 27 15 77 27 98
24 8 -2 38 -6 65 -9z m48 -565 c78 -16 102 -19 175 -26 37 -4 78 -8 91 -10
133 -22 1002 -22 1221 0 19 2 81 6 137 10 56 3 110 8 121 10 10 2 56 6 103 10
46 4 93 9 104 12 11 2 55 4 97 4 128 1 168 -32 171 -140 2 -57 -23 -93 -80
-117 -37 -16 -185 -49 -263 -59 -30 -4 -64 -9 -75 -11 -11 -2 -51 -6 -90 -9
-38 -3 -90 -8 -115 -10 -245 -24 -1072 -24 -1295 0 -22 2 -69 7 -105 10 -127
11 -313 47 -367 71 -66 30 -93 70 -93 135 0 59 33 110 80 125 39 13 102 11
183 -5z"/>
</g>
</svg>
