<svg width="320" height="320" viewBox="0 0 320 320" fill="none" xmlns="http://www.w3.org/2000/svg">
<path fill-rule="evenodd" clip-rule="evenodd" d="M41.613 31.2989C37.4567 32.5121 32.9838 37.2299 31.7906 41.6608C31.1234 44.1388 30.8823 84.3903 31.0529 164.965C31.3045 284.018 31.315 284.603 33.2679 287.281C34.3467 288.761 37.1345 290.948 39.4629 292.141L43.6955 294.313L131.856 294.031C219.927 293.75 220.023 293.748 227.64 291.609C258.285 283.003 284.092 257.003 292.205 226.561L294.356 218.49V129.377V40.2636L292.231 37.2833C291.061 35.6449 288.488 33.5005 286.512 32.5179C283.063 30.8042 278.142 30.7261 163.784 30.5726C92.6992 30.4773 43.4239 30.7709 41.613 31.2989ZM277.924 41.7456C284.68 43.6213 284.392 40.7754 284.118 103.067L283.872 159.033L279.871 152.947C274.191 144.307 258.71 129.82 249.699 124.712C234.946 116.351 222.074 113.03 204.29 112.994C177.975 112.942 158.22 121.025 139.909 139.337C121.767 157.477 113.589 177.285 113.522 203.241C113.471 223.659 118.513 240.231 129.47 255.66C134.662 262.97 149.139 276.933 155.254 280.527L159.972 283.3L104.422 283.546C43.809 283.814 44.2883 283.853 42.2249 278.427C40.841 274.786 41.004 50.4873 42.3936 46.5005C44.4752 40.5295 38.4536 40.8183 161.878 40.783C237.189 40.7611 275.525 41.0794 277.924 41.7456ZM82.161 61.7642C75.7477 62.7925 71.2997 65.2029 67.1814 69.8816C57.8097 80.5285 58.0223 101.769 67.5988 111.629C73.3964 117.6 77.8045 119.347 87.0608 119.345C93.9716 119.343 95.8625 118.974 99.9274 116.829C102.548 115.447 105.618 113.309 106.749 112.077C114.347 103.805 116.297 88.603 111.346 76.2348C107.308 66.1474 94.4824 59.7875 82.161 61.7642ZM96.9414 70.6374C100.164 72.5264 101.848 74.4344 103.785 78.3945C106.132 83.1904 106.319 84.3903 105.945 92.2113C105.581 99.8284 105.221 101.225 102.692 104.823C98.879 110.248 93.5999 113.145 87.5373 113.138C74.603 113.124 67.2996 103.865 68.184 88.602C68.5024 83.0903 69.2067 80.0996 70.8917 77.1021C76.046 67.9306 87.4811 65.0933 96.9414 70.6374ZM213.864 140.487C232.208 149.119 240.531 170.742 232.327 188.451L229.983 193.508L240.487 204.258C250.42 214.422 250.991 215.22 250.991 218.936C250.991 224.167 247.77 227.544 242.783 227.544C239.568 227.544 238.271 226.58 228.206 216.712L217.157 205.879L213.12 207.687C198.745 214.128 182.001 210.405 170.949 198.312C164.37 191.114 161.95 184.506 161.934 173.695C161.924 166.392 162.299 164.305 164.462 159.651C167.846 152.367 171.153 148.185 176.818 144.027C187.331 136.31 202.007 134.908 213.864 140.487ZM190.6 149.835C168.495 157.715 167.176 187.464 188.502 197.151C190.983 198.277 194.624 198.918 198.623 198.931C213.043 198.979 223.59 188.277 223.59 173.597C223.59 156.805 206.195 144.275 190.6 149.835ZM174.744 227.544V234.216H168.073H161.401V227.544V220.873H168.073H174.744V227.544ZM199.525 227.544V234.216H192.853H186.181V227.544V220.873H192.853H199.525V227.544ZM174.744 255.184V261.855H168.073H161.401V255.184V248.512H168.073H174.744V255.184ZM199.525 255.184V261.855H192.853H186.181V255.184V248.512H192.853H199.525V255.184ZM224.305 255.184V261.855H217.633H210.962V255.184V248.512H217.633H224.305V255.184ZM248.608 255.184V261.379L241.698 261.659L234.789 261.939V255.86C234.789 252.518 235.092 249.48 235.463 249.109C235.834 248.738 238.943 248.559 242.373 248.711L248.608 248.989V255.184Z" fill="#FECD36"/>
<path d="M264.552 98.642C240.143 98.642 220.231 78.7297 220.231 54.3211C220.231 29.9124 240.143 10.0001 264.552 10.0001C288.961 10.0001 308.873 29.9124 308.873 54.3211C308.873 78.7297 289.089 98.642 264.552 98.642Z" fill="white"/>
<path d="M242.017 30.8126C241.87 30.9507 241.722 31.19 241.685 31.3373C241.639 31.5674 245.358 74.049 245.542 75.3561C245.662 76.1661 245.156 75.9912 255.079 78.8172C260.013 80.2256 264.192 81.3762 264.367 81.3762C264.542 81.3762 268.721 80.2256 273.655 78.8172C283.421 76.0281 283.072 76.1569 283.191 75.4481C283.21 75.2824 284.112 65.3409 285.17 53.3559C287.278 29.7172 287.186 31.1256 286.643 30.739C286.385 30.5549 286.303 30.5549 264.339 30.5549H242.293L242.017 30.8126ZM262.158 54.8195V69.1426L261.909 69.0782C261.762 69.0506 259.046 68.2958 255.871 67.4121C252.686 66.5284 250.071 65.8104 250.044 65.8104C250.025 65.8104 250.007 64.6045 250.007 63.1409C250.007 61.6681 250.035 60.4714 250.071 60.4714C250.145 60.4714 257.435 62.4874 257.62 62.561C257.721 62.5978 257.739 60.6832 257.739 51.5517V40.4964H259.948H262.158V54.8195ZM279.739 40.7449C279.739 41.1039 279.463 44.4546 279.408 44.7031L279.371 44.9148H275.183H270.995V49.3333V53.7517H271.188C271.298 53.7517 273.02 53.5216 275.017 53.2362C277.015 52.9509 278.662 52.7392 278.681 52.7576C278.708 52.776 278.469 55.7953 278.156 59.4681L277.576 66.1418L272.283 67.587C269.374 68.3878 266.898 69.069 266.788 69.0966L266.576 69.1426V66.6665V64.1903L270.056 63.233C271.961 62.7083 273.655 62.248 273.811 62.202L274.097 62.1284L274.216 60.0572C274.281 58.9158 274.318 57.9677 274.299 57.94C274.272 57.9216 272.587 58.1886 270.543 58.5476C268.509 58.8974 266.779 59.1827 266.705 59.1827C266.594 59.1827 266.576 57.848 266.576 49.8396V40.4964H273.158H279.739V40.7449Z" fill="#FECD36"/>
<path d="M264.552 11.7987C287.933 11.7987 306.946 30.8117 306.946 54.1926C306.946 77.5735 287.933 96.5866 264.552 96.5866C241.171 96.5866 222.158 77.5735 222.158 54.1926C222.158 30.8117 241.171 11.7987 264.552 11.7987ZM264.552 7.9447C238.987 7.9447 218.304 28.6278 218.304 54.1926C218.304 79.7575 238.987 100.441 264.552 100.441C290.117 100.441 310.8 79.7575 310.8 54.1926C310.8 28.6278 290.117 7.9447 264.552 7.9447Z" fill="white"/>
</svg>
