<svg width="333" height="329" viewBox="0 0 333 329" fill="none" xmlns="http://www.w3.org/2000/svg">
<path fill-rule="evenodd" clip-rule="evenodd" d="M11.1355 52.7807C6.77449 54.0537 2.08149 59.0037 0.829494 63.6527C0.129494 66.2527 -0.123506 108.486 0.0554941 193.027C0.319494 317.941 0.330494 318.554 2.37949 321.364C3.51149 322.917 6.43649 325.212 8.87949 326.464L13.3205 328.742L105.82 328.447C198.227 328.152 198.328 328.15 206.32 325.905C238.473 316.876 265.551 289.596 274.064 257.655L276.32 249.187V155.687V62.1867L274.09 59.0597C272.863 57.3407 270.163 55.0907 268.09 54.0597C264.471 52.2617 259.308 52.1797 139.32 52.0187C64.7365 51.9187 13.0355 52.2267 11.1355 52.7807ZM259.079 63.7417C266.167 65.7097 265.865 62.7237 265.578 128.082L265.32 186.803L261.122 180.418C255.162 171.352 238.919 156.152 229.464 150.793C213.985 142.02 200.48 138.535 181.82 138.498C154.21 138.443 133.482 146.924 114.27 166.137C95.2355 185.171 86.6545 205.954 86.5845 233.187C86.5305 254.61 91.8205 271.998 103.317 288.187C108.764 295.857 123.954 310.507 130.37 314.278L135.32 317.187L77.0365 317.445C13.4395 317.727 13.9425 317.768 11.7775 312.074C10.3255 308.254 10.4965 72.9137 11.9545 68.7307C14.1385 62.4657 7.8205 62.7687 137.32 62.7317C216.339 62.7087 256.562 63.0427 259.079 63.7417ZM53.6795 84.7457C46.9505 85.8247 42.2835 88.3537 37.9625 93.2627C28.1295 104.434 28.3525 126.72 38.4005 137.066C44.4835 143.33 49.1085 145.163 58.8205 145.161C66.0715 145.159 68.0555 144.772 72.3205 142.522C75.0705 141.072 78.2915 138.828 79.4775 137.536C87.4495 128.856 89.4955 112.906 84.3015 99.9287C80.0645 89.3447 66.6075 82.6717 53.6795 84.7457ZM69.1875 94.0557C72.5685 96.0377 74.3355 98.0397 76.3685 102.195C78.8305 107.227 79.0265 108.486 78.6345 116.692C78.2525 124.684 77.8745 126.149 75.2215 129.925C71.2205 135.617 65.6815 138.656 59.3205 138.649C45.7495 138.634 38.0865 128.919 39.0145 112.905C39.3485 107.122 40.0875 103.984 41.8555 100.839C47.2635 91.2157 59.2615 88.2387 69.1875 94.0557ZM191.865 167.344C211.112 176.401 219.846 199.089 211.238 217.669L208.778 222.975L219.799 234.254C230.221 244.919 230.82 245.756 230.82 249.655C230.82 255.143 227.44 258.687 222.208 258.687C218.835 258.687 217.474 257.675 206.913 247.321L195.32 235.955L191.085 237.852C176.002 244.61 158.435 240.704 146.839 228.016C139.936 220.463 137.397 213.53 137.38 202.187C137.369 194.524 137.762 192.335 140.031 187.452C143.582 179.809 147.052 175.421 152.996 171.058C164.026 162.961 179.425 161.49 191.865 167.344ZM167.456 177.152C144.263 185.42 142.879 216.634 165.255 226.797C167.858 227.979 171.678 228.651 175.874 228.665C191.004 228.716 202.07 217.487 202.07 202.084C202.07 184.465 183.819 171.319 167.456 177.152ZM150.82 258.687V265.687H143.82H136.82V258.687V251.687H143.82H150.82V258.687ZM176.82 258.687V265.687H169.82H162.82V258.687V251.687H169.82H176.82V258.687ZM150.82 287.687V294.687H143.82H136.82V287.687V280.687H143.82H150.82V287.687ZM176.82 287.687V294.687H169.82H162.82V287.687V280.687H169.82H176.82V287.687ZM202.82 287.687V294.687H195.82H188.82V287.687V280.687H195.82H202.82V287.687ZM228.32 287.687V294.187L221.07 294.481L213.82 294.775V288.397C213.82 284.89 214.138 281.702 214.528 281.313C214.917 280.924 218.179 280.736 221.778 280.896L228.32 281.187V287.687Z" fill="#FECD36"/>
<circle cx="276" cy="57" r="57" fill="#662570"/>
<path d="M238.345 37.7567H240.587L244.485 47.274H244.628L248.526 37.7567H250.768V50H249.01V41.1403H248.897L245.286 49.9821H243.827L240.216 41.1344H240.103V50H238.345V37.7567ZM253.31 50V40.8175H255.097V50H253.31ZM254.213 39.4007C253.902 39.4007 253.635 39.2971 253.412 39.0898C253.192 38.8786 253.083 38.6275 253.083 38.3366C253.083 38.0417 253.192 37.7906 253.412 37.5833C253.635 37.3721 253.902 37.2665 254.213 37.2665C254.524 37.2665 254.789 37.3721 255.008 37.5833C255.231 37.7906 255.343 38.0417 255.343 38.3366C255.343 38.6275 255.231 38.8786 255.008 39.0898C254.789 39.2971 254.524 39.4007 254.213 39.4007ZM261.37 50.1853C260.481 50.1853 259.716 49.9841 259.074 49.5815C258.437 49.175 257.947 48.6151 257.604 47.9017C257.261 47.1883 257.09 46.3712 257.09 45.4506C257.09 44.518 257.265 43.695 257.616 42.9816C257.966 42.2642 258.461 41.7043 259.098 41.3018C259.736 40.8992 260.487 40.698 261.352 40.698C262.05 40.698 262.671 40.8275 263.217 41.0865C263.763 41.3416 264.204 41.7003 264.538 42.1626C264.877 42.6249 265.078 43.165 265.142 43.7827H263.403C263.307 43.3523 263.088 42.9816 262.745 42.6708C262.406 42.3599 261.952 42.2045 261.382 42.2045C260.884 42.2045 260.447 42.336 260.073 42.599C259.702 42.8581 259.413 43.2287 259.206 43.711C258.999 44.1892 258.895 44.7552 258.895 45.4088C258.895 46.0783 258.997 46.6562 259.2 47.1424C259.403 47.6287 259.69 48.0053 260.061 48.2723C260.435 48.5393 260.876 48.6728 261.382 48.6728C261.721 48.6728 262.028 48.6111 262.303 48.4875C262.582 48.36 262.815 48.1787 263.002 47.9435C263.193 47.7084 263.327 47.4254 263.403 47.0946H265.142C265.078 47.6884 264.885 48.2185 264.562 48.6848C264.24 49.1511 263.807 49.5178 263.265 49.7848C262.727 50.0518 262.095 50.1853 261.37 50.1853ZM267.054 50V40.8175H268.781V42.2762H268.877C269.044 41.782 269.339 41.3934 269.762 41.1105C270.188 40.8235 270.671 40.68 271.209 40.68C271.32 40.68 271.452 40.684 271.603 40.692C271.759 40.7 271.88 40.7099 271.968 40.7219V42.4316C271.896 42.4117 271.769 42.3898 271.585 42.3659C271.402 42.338 271.219 42.324 271.035 42.324C270.613 42.324 270.236 42.4137 269.905 42.593C269.579 42.7684 269.319 43.0135 269.128 43.3284C268.937 43.6392 268.841 43.9939 268.841 44.3925V50H267.054ZM277.054 50.1853C276.193 50.1853 275.442 49.988 274.8 49.5935C274.158 49.1989 273.66 48.6469 273.305 47.9375C272.951 47.2281 272.773 46.3991 272.773 45.4506C272.773 44.4981 272.951 43.6651 273.305 42.9517C273.66 42.2383 274.158 41.6844 274.8 41.2898C275.442 40.8952 276.193 40.698 277.054 40.698C277.915 40.698 278.666 40.8952 279.308 41.2898C279.949 41.6844 280.447 42.2383 280.802 42.9517C281.157 43.6651 281.334 44.4981 281.334 45.4506C281.334 46.3991 281.157 47.2281 280.802 47.9375C280.447 48.6469 279.949 49.1989 279.308 49.5935C278.666 49.988 277.915 50.1853 277.054 50.1853ZM277.06 48.6848C277.618 48.6848 278.08 48.5373 278.447 48.2424C278.813 47.9475 279.084 47.5549 279.26 47.0647C279.439 46.5745 279.529 46.0345 279.529 45.4446C279.529 44.8588 279.439 44.3207 279.26 43.8305C279.084 43.3363 278.813 42.9398 278.447 42.6409C278.08 42.342 277.618 42.1925 277.06 42.1925C276.498 42.1925 276.031 42.342 275.661 42.6409C275.294 42.9398 275.021 43.3363 274.842 43.8305C274.666 44.3207 274.579 44.8588 274.579 45.4446C274.579 46.0345 274.666 46.5745 274.842 47.0647C275.021 47.5549 275.294 47.9475 275.661 48.2424C276.031 48.5373 276.498 48.6848 277.06 48.6848ZM290.21 43.0593L288.59 43.3463C288.522 43.1391 288.415 42.9418 288.267 42.7545C288.124 42.5671 287.929 42.4137 287.681 42.2941C287.434 42.1746 287.125 42.1148 286.755 42.1148C286.249 42.1148 285.826 42.2284 285.487 42.4555C285.149 42.6787 284.979 42.9677 284.979 43.3224C284.979 43.6293 285.093 43.8764 285.32 44.0637C285.547 44.251 285.914 44.4044 286.42 44.524L287.879 44.8588C288.724 45.0541 289.353 45.355 289.768 45.7615C290.182 46.168 290.39 46.6961 290.39 47.3457C290.39 47.8957 290.23 48.3859 289.911 48.8163C289.596 49.2428 289.156 49.5775 288.59 49.8207C288.028 50.0638 287.377 50.1853 286.635 50.1853C285.607 50.1853 284.768 49.9661 284.118 49.5277C283.469 49.0853 283.07 48.4576 282.923 47.6446L284.651 47.3816C284.758 47.8319 284.979 48.1727 285.314 48.4038C285.649 48.631 286.085 48.7446 286.623 48.7446C287.209 48.7446 287.677 48.623 288.028 48.3799C288.379 48.1328 288.554 47.8319 288.554 47.4772C288.554 47.1903 288.447 46.9491 288.231 46.7539C288.02 46.5586 287.695 46.4111 287.257 46.3115L285.703 45.9707C284.846 45.7754 284.212 45.4646 283.802 45.0381C283.395 44.6117 283.192 44.0716 283.192 43.418C283.192 42.876 283.343 42.4017 283.646 41.9952C283.949 41.5887 284.368 41.2719 284.902 41.0447C285.436 40.8135 286.047 40.698 286.737 40.698C287.729 40.698 288.51 40.9132 289.08 41.3436C289.65 41.77 290.027 42.342 290.21 43.0593ZM296.223 50.1853C295.362 50.1853 294.611 49.988 293.969 49.5935C293.327 49.1989 292.829 48.6469 292.474 47.9375C292.12 47.2281 291.942 46.3991 291.942 45.4506C291.942 44.4981 292.12 43.6651 292.474 42.9517C292.829 42.2383 293.327 41.6844 293.969 41.2898C294.611 40.8952 295.362 40.698 296.223 40.698C297.084 40.698 297.835 40.8952 298.477 41.2898C299.118 41.6844 299.616 42.2383 299.971 42.9517C300.326 43.6651 300.503 44.4981 300.503 45.4506C300.503 46.3991 300.326 47.2281 299.971 47.9375C299.616 48.6469 299.118 49.1989 298.477 49.5935C297.835 49.988 297.084 50.1853 296.223 50.1853ZM296.229 48.6848C296.787 48.6848 297.249 48.5373 297.616 48.2424C297.982 47.9475 298.253 47.5549 298.429 47.0647C298.608 46.5745 298.698 46.0345 298.698 45.4446C298.698 44.8588 298.608 44.3207 298.429 43.8305C298.253 43.3363 297.982 42.9398 297.616 42.6409C297.249 42.342 296.787 42.1925 296.229 42.1925C295.667 42.1925 295.2 42.342 294.83 42.6409C294.463 42.9398 294.19 43.3363 294.011 43.8305C293.835 44.3207 293.748 44.8588 293.748 45.4446C293.748 46.0345 293.835 46.5745 294.011 47.0647C294.19 47.5549 294.463 47.9475 294.83 48.2424C295.2 48.5373 295.667 48.6848 296.229 48.6848ZM306.868 40.8175V42.2523H301.679V40.8175H306.868ZM303.102 50V39.7534C303.102 39.1795 303.228 38.7032 303.479 38.3246C303.73 37.942 304.063 37.6571 304.477 37.4698C304.892 37.2784 305.342 37.1828 305.828 37.1828C306.187 37.1828 306.494 37.2127 306.749 37.2725C307.004 37.3283 307.193 37.3801 307.317 37.4279L306.898 38.8746C306.815 38.8507 306.707 38.8228 306.575 38.7909C306.444 38.7551 306.285 38.7371 306.097 38.7371C305.663 38.7371 305.352 38.8447 305.165 39.0599C304.981 39.2752 304.89 39.586 304.89 39.9925V50H303.102ZM312.999 40.8175V42.2523H307.983V40.8175H312.999ZM309.328 38.6176H311.116V47.3038C311.116 47.6506 311.168 47.9116 311.271 48.087C311.375 48.2584 311.508 48.3759 311.672 48.4397C311.839 48.4995 312.021 48.5294 312.216 48.5294C312.359 48.5294 312.485 48.5194 312.592 48.4995C312.7 48.4796 312.784 48.4636 312.844 48.4517L313.166 49.9283C313.063 49.9681 312.915 50.008 312.724 50.0478C312.533 50.0917 312.294 50.1156 312.007 50.1196C311.536 50.1275 311.098 50.0438 310.691 49.8685C310.285 49.6931 309.956 49.4221 309.705 49.0554C309.454 48.6888 309.328 48.2285 309.328 47.6745V38.6176ZM241.82 82.2301C241.158 82.2301 240.589 81.996 240.112 81.5277C239.636 81.0513 239.398 80.4781 239.398 79.808C239.398 79.146 239.636 78.5808 240.112 78.1125C240.589 77.6362 241.158 77.398 241.82 77.398C242.482 77.398 243.051 77.6362 243.528 78.1125C244.004 78.5808 244.242 79.146 244.242 79.808C244.242 80.252 244.129 80.6598 243.903 81.0312C243.685 81.3945 243.394 81.6851 243.031 81.9031C242.668 82.1211 242.264 82.2301 241.82 82.2301ZM269.402 57.1976V82H265.962L253.355 63.81H253.125V82H249.383V57.1976H252.847L265.466 75.4119H265.696V57.1976H269.402ZM274.861 82V57.1976H290.41V60.419H278.603V67.976H289.599V71.1853H278.603V78.7786H290.556V82H274.861ZM294.186 60.419V57.1976H313.381V60.419H305.643V82H301.912V60.419H294.186Z" fill="white"/>
</svg>
