<svg width="320" height="320" viewBox="0 0 320 320" fill="none" xmlns="http://www.w3.org/2000/svg">
<path fill-rule="evenodd" clip-rule="evenodd" d="M41.613 31.2988C37.4567 32.5121 32.9838 37.2299 31.7906 41.6607C31.1234 44.1388 30.8823 84.3903 31.0529 164.965C31.3045 284.018 31.315 284.602 33.2679 287.281C34.3467 288.761 37.1345 290.948 39.4629 292.141L43.6955 294.312L131.856 294.031C219.927 293.75 220.023 293.748 227.64 291.609C258.285 283.003 284.092 257.003 292.205 226.561L294.356 218.49V129.377V40.2635L292.231 37.2832C291.061 35.6449 288.488 33.5005 286.512 32.5178C283.063 30.8042 278.142 30.726 163.784 30.5726C92.6992 30.4773 43.4239 30.7708 41.613 31.2988ZM277.924 41.7456C284.68 43.6212 284.392 40.7753 284.118 103.067L283.872 159.033L279.871 152.947C274.191 144.307 258.71 129.82 249.699 124.712C234.946 116.351 222.074 113.029 204.29 112.994C177.975 112.942 158.22 121.025 139.909 139.336C121.767 157.477 113.589 177.285 113.522 203.241C113.471 223.659 118.513 240.231 129.47 255.66C134.662 262.97 149.139 276.933 155.254 280.527L159.972 283.3L104.422 283.546C43.809 283.814 44.2883 283.853 42.2249 278.427C40.841 274.786 41.004 50.4872 42.3936 46.5005C44.4752 40.5294 38.4536 40.8182 161.878 40.783C237.189 40.761 275.525 41.0794 277.924 41.7456ZM82.161 61.7641C75.7477 62.7925 71.2997 65.2028 67.1814 69.8815C57.8097 80.5284 58.0223 101.769 67.5988 111.629C73.3964 117.6 77.8045 119.347 87.0608 119.345C93.9716 119.343 95.8625 118.974 99.9274 116.829C102.548 115.447 105.618 113.309 106.749 112.077C114.347 103.805 116.297 88.6029 111.346 76.2348C107.308 66.1473 94.4824 59.7874 82.161 61.7641ZM96.9414 70.6373C100.164 72.5263 101.848 74.4344 103.785 78.3945C106.132 83.1904 106.319 84.3903 105.945 92.2113C105.581 99.8283 105.221 101.225 102.692 104.823C98.879 110.248 93.5999 113.145 87.5373 113.138C74.603 113.124 67.2996 103.865 68.184 88.602C68.5024 83.0903 69.2067 80.0995 70.8917 77.1021C76.046 67.9306 87.4811 65.0932 96.9414 70.6373ZM213.864 140.487C232.208 149.119 240.531 170.742 232.327 188.451L229.983 193.508L240.487 204.258C250.42 214.422 250.991 215.22 250.991 218.936C250.991 224.167 247.77 227.544 242.783 227.544C239.568 227.544 238.271 226.58 228.206 216.712L217.157 205.879L213.12 207.687C198.745 214.128 182.001 210.405 170.949 198.312C164.37 191.114 161.95 184.506 161.934 173.695C161.924 166.392 162.299 164.305 164.462 159.651C167.846 152.367 171.153 148.185 176.818 144.027C187.331 136.309 202.007 134.907 213.864 140.487ZM190.6 149.835C168.495 157.715 167.176 187.464 188.502 197.15C190.983 198.277 194.624 198.917 198.623 198.931C213.043 198.979 223.59 188.277 223.59 173.597C223.59 156.805 206.195 144.275 190.6 149.835ZM174.744 227.544V234.216H168.073H161.401V227.544V220.873H168.073H174.744V227.544ZM199.525 227.544V234.216H192.853H186.181V227.544V220.873H192.853H199.525V227.544ZM174.744 255.184V261.855H168.073H161.401V255.184V248.512H168.073H174.744V255.184ZM199.525 255.184V261.855H192.853H186.181V255.184V248.512H192.853H199.525V255.184ZM224.305 255.184V261.855H217.633H210.962V255.184V248.512H217.633H224.305V255.184ZM248.608 255.184V261.379L241.698 261.659L234.789 261.939V255.86C234.789 252.518 235.092 249.479 235.463 249.109C235.834 248.738 238.943 248.559 242.373 248.711L248.608 248.989V255.184Z" fill="#FECD36"/>
<path d="M264.552 98.642C240.143 98.642 220.231 78.7297 220.231 54.3211C220.231 29.9124 240.143 10.0001 264.552 10.0001C288.961 10.0001 308.873 29.9124 308.873 54.3211C308.873 78.7297 289.089 98.642 264.552 98.642Z" fill="#E04645"/>
<path d="M264.83 34.5263C261.951 36.5466 258.689 38.8534 256.94 42.6554C253.901 49.2892 263.16 56.5116 263.557 56.8298C263.653 56.8934 263.764 56.9411 263.876 56.9411C263.987 56.9411 264.114 56.8934 264.21 56.8298C264.401 56.6707 264.448 56.4162 264.337 56.2094C264.305 56.1457 260.98 49.6869 261.108 45.0576C261.155 43.4509 263.414 41.6214 265.8 39.6806C267.996 37.8988 270.478 35.8944 271.925 33.54C275.107 28.3538 271.575 23.2632 271.528 23.2154C271.384 23.0245 271.13 22.945 270.907 23.0404C270.684 23.1359 270.557 23.3745 270.621 23.6131C270.621 23.645 271.321 27.0175 269.396 30.4856C268.569 31.9014 266.835 33.1104 264.83 34.5263Z" fill="white"/>
<path d="M276.968 36.8171C277.175 36.658 277.239 36.3875 277.111 36.1648C276.984 35.9421 276.714 35.8467 276.475 35.9262C275.982 36.1171 264.48 40.5396 264.48 45.9007C264.48 49.5915 266.055 51.5482 267.201 52.964C267.646 53.5208 268.044 53.9981 268.171 54.4117C268.537 55.6048 267.678 57.7365 267.312 58.4683C267.201 58.6751 267.264 58.9297 267.439 59.0888C267.535 59.1683 267.646 59.216 267.773 59.216C267.869 59.216 267.98 59.1842 268.06 59.1206C268.251 58.9774 272.896 55.7003 272.053 51.755C271.75 50.2596 271.003 49.1619 270.35 48.1915C269.348 46.6962 268.616 45.6144 269.714 43.6099C271.05 41.2873 276.921 36.8648 276.968 36.8171Z" fill="white"/>
<path d="M247.045 59.2956C246.854 59.8842 246.933 60.4728 247.315 60.9819C248.556 62.7159 252.978 63.6704 259.739 63.6704C260.662 63.6704 261.633 63.6545 262.619 63.6227C273.437 63.2409 277.461 59.8683 277.62 59.7251C277.795 59.5661 277.843 59.3115 277.732 59.1047C277.62 58.8979 277.382 58.7866 277.143 58.8502C273.325 59.8842 266.214 60.266 261.267 60.266C255.746 60.266 252.931 59.8683 252.247 59.582C252.597 59.0888 254.776 58.2298 257.48 57.7048C257.735 57.6571 257.91 57.4184 257.894 57.148C257.862 56.8935 257.655 56.6867 257.385 56.6867C255.81 56.6548 247.872 56.7821 247.045 59.2956Z" fill="white"/>
<path d="M283.268 55.8275C281.041 55.8275 278.925 56.9411 278.829 56.9888C278.623 57.1002 278.511 57.3388 278.575 57.5615C278.639 57.7842 278.829 57.9433 279.068 57.9433C279.116 57.9433 283.825 57.9751 284.254 60.6796C284.636 63.0022 279.8 66.7724 277.891 68.0292C277.684 68.1724 277.605 68.4269 277.7 68.6496C277.78 68.8405 277.97 68.9678 278.177 68.9678C278.209 68.9678 278.241 68.9678 278.289 68.9519C278.734 68.8564 289.297 66.5338 288.184 60.3773C287.5 56.6229 285.129 55.8275 283.268 55.8275Z" fill="white"/>
<path d="M276.03 67.2817C276.062 67.0908 275.982 66.884 275.823 66.7726L273.294 65.0068C273.166 64.9272 273.007 64.8954 272.864 64.9272C272.832 64.9272 270.192 65.6272 266.342 66.0567C264.815 66.2317 263.112 66.3113 261.394 66.3113C257.544 66.3113 255.031 65.8658 254.665 65.5318C254.617 65.4363 254.633 65.3886 254.633 65.3727C254.697 65.1818 255.063 64.975 255.285 64.8795C255.54 64.7841 255.683 64.5136 255.604 64.2591C255.524 64.0046 255.254 63.8455 254.999 63.9091C252.454 64.5295 251.213 65.3727 251.308 66.4544C251.467 68.3634 255.89 69.3498 259.628 69.6043C260.169 69.6361 260.742 69.652 261.362 69.652C267.583 69.652 275.553 67.6953 275.632 67.6794C275.839 67.6317 275.982 67.4726 276.03 67.2817Z" fill="white"/>
<path d="M256.924 71.386C257.115 71.2587 257.194 71.0201 257.131 70.8133C257.067 70.5905 256.86 70.4474 256.622 70.4474C256.287 70.4633 253.297 70.5905 253.074 72.4995C253.01 73.0722 253.169 73.5813 253.551 74.0426C254.633 75.3153 257.528 76.0789 262.412 76.3494C262.985 76.3812 263.573 76.3971 264.162 76.3971C270.382 76.3971 274.566 74.4563 274.741 74.3767C274.916 74.2972 275.027 74.1222 275.027 73.9472C275.043 73.7563 274.948 73.5813 274.789 73.4859L271.591 71.5291C271.48 71.4655 271.353 71.4337 271.225 71.4655C271.209 71.4655 269.173 71.895 266.103 72.3086C265.53 72.3882 264.798 72.42 263.939 72.42C260.869 72.42 257.465 71.9268 256.812 71.5928C256.828 71.5291 256.844 71.4496 256.924 71.386Z" fill="white"/>
<path d="M261.299 82.2672C275.536 82.2513 283.172 79.7219 284.636 78.1311C285.161 77.5743 285.209 77.0334 285.161 76.6834C285.05 75.8244 284.27 75.2994 284.175 75.2517C283.968 75.1085 283.682 75.1562 283.507 75.3471C283.347 75.538 283.332 75.8244 283.507 76.0153C283.602 76.1266 283.65 76.3175 283.379 76.588C282.791 77.1448 276.857 78.7992 266.978 79.3083C265.626 79.3719 264.21 79.4196 262.762 79.4196C253.917 79.4196 247.442 78.2106 246.599 77.4947C246.933 77.0175 249.224 76.2698 251.658 75.8403C251.929 75.7925 252.119 75.538 252.072 75.2517C252.024 74.9653 251.769 74.7903 251.499 74.8221C251.435 74.838 251.197 74.838 250.926 74.8699C246.901 75.1085 242.272 75.6653 242.018 77.7334C241.938 78.3697 242.129 78.9424 242.574 79.4355C243.672 80.6446 246.79 82.2672 261.299 82.2672Z" fill="white"/>
<path d="M287.436 78.5925C287.229 78.4971 286.99 78.5448 286.847 78.7039C286.831 78.7198 284.684 80.9629 278.257 82.2832C275.791 82.7764 271.178 83.0309 264.512 83.0309C257.846 83.0309 251.499 82.7764 251.435 82.7605C251.165 82.7446 250.942 82.9355 250.91 83.2059C250.878 83.4605 251.038 83.715 251.292 83.7786C251.356 83.7945 258.005 85.3536 267.105 85.3536C271.464 85.3536 275.711 85.0036 279.72 84.3036C287.197 82.9991 287.722 79.2925 287.738 79.1334C287.754 78.8948 287.627 78.672 287.436 78.5925Z" fill="white"/>
<path d="M264.552 11.7987C287.933 11.7987 306.946 30.8117 306.946 54.1926C306.946 77.5735 287.933 96.5866 264.552 96.5866C241.171 96.5866 222.158 77.5735 222.158 54.1926C222.158 30.8117 241.171 11.7987 264.552 11.7987ZM264.552 7.9447C238.987 7.9447 218.304 28.6278 218.304 54.1926C218.304 79.7575 238.987 100.441 264.552 100.441C290.117 100.441 310.8 79.7575 310.8 54.1926C310.8 28.6278 290.117 7.9447 264.552 7.9447Z" fill="white"/>
</svg>
