<?xml version="1.0" encoding="utf-8"?>
<svg version="1.1" id="Aspose.Tasks" x="0px" y="0px" viewBox="0 0 277 277" style="enable-background:new 0 0 277 277;" xmlns="http://www.w3.org/2000/svg">
  <style type="text/css">
	.st0{fill-rule:evenodd;clip-rule:evenodd;fill:#ABC314;}
	.st1{fill-rule:evenodd;clip-rule:evenodd;fill:#FFFFFF;}
</style>
  <g id="NET">
    <g>
      <path class="st0" d="M21.65,3.5l235.13,1.25l2.69,0.35c2.02,0.23,3.92,0.86,5.71,1.88c5.59,2.83,8.37,7.73,8.33,14.69 l-0.85,159.68c-0.13,25.6-9.33,47.33-27.58,65.2c-18.14,18.1-39.92,27.07-65.36,26.94l-159.5-0.85c-2.8-0.01-5.6-0.7-8.39-2.07 c-5.59-2.84-8.36-7.79-8.32-14.86L4.75,20.25c0.01-2.81,0.76-5.61,2.23-8.41C9.81,6.25,14.7,3.46,21.65,3.5z M15.49,23.68 l-1.21,228.73c0.09,4.04,1.48,6.69,4.16,7.94c1.68,0.9,3.41,1.42,5.2,1.54l112.27,0.6c-7.7-4.29-14.84-9.83-21.42-16.62 c-17.94-18.06-26.85-39.89-26.71-65.49c0.14-25.72,9.27-47.51,27.41-65.37c17.91-17.98,39.75-26.91,65.52-26.77 c25.44,0.13,47.12,9.29,65.07,27.46c6.71,6.71,12.16,13.95,16.36,21.73L262.72,25c-0.09-4.05-1.54-6.74-4.33-8.11 c-1.01-0.46-2.18-0.79-3.53-1.03l-1.51-0.34L24.95,14.3c-4.03,0.09-6.73,1.48-8.09,4.17C16.07,20.15,15.61,21.88,15.49,23.68z" style="fill: rgb(255, 205, 56);"/>
      <g>
        <path class="st0" d="M119.74,47.31l-20.78,20.1l19.51,29.24l-7.4-0.04L94.73,72.1l-7.94,7.87L86.7,96.48l-6.89-0.04l0.26-49.35 l6.89,0.04l-0.13,24.42l25.01-24.29L119.74,47.31z M33.03,43.31l0.03-6.23l46.39,0.25l-0.03,6.23l-18.49-0.1l-0.28,52.88 l-8.24-0.04l0.28-52.89L33.03,43.31z" style="fill: rgb(255, 205, 56);"/>
      </g>
    </g>
    <path class="st1" d="M138.75,138.87l-0.44,83.54l83.53,0.44l0.45-83.54L138.75,138.87z M132.39,228.44l0.51-95.5l95.3,0.51 l-0.51,95.5L132.39,228.44z M216.11,161.35l-41.9,41.55l-29.59-29.97l12-11.89l17.72,17.95l29.91-29.65L216.11,161.35z"/>
  </g>
</svg>