<?xml version="1.0" encoding="utf-8"?>
<!-- Generator: Adobe Illustrator 28.1.0, SVG Export Plug-In . SVG Version: 6.00 Build 0)  -->
<svg version="1.1" id="Layer_1" xmlns="http://www.w3.org/2000/svg" xmlns:xlink="http://www.w3.org/1999/xlink" x="0px" y="0px"
	 viewBox="0 0 272 272" style="enable-background:new 0 0 272 272;" xml:space="preserve">
<style type="text/css">
	.st0{fill:#FFFFFF;}
	.st1{fill-rule:evenodd;clip-rule:evenodd;fill:#FECD36;}
	.st2{clip-path:url(#SVGID_00000159454817659307063270000001435322630043923072_);}
	.st3{fill:#FECD36;}
</style>
<g>
	<path class="st0" d="M13.9,28.3h233.7v152.3c0,45.7-36.9,82.6-82.6,82.6H13.9V28.3z"/>
	<path class="st1" d="M17.8,25.5c-3.8,1.1-7.9,5.4-9,9.6C8.2,37.3,8,74.4,8.1,148.4c0.2,109.4,0.2,109.9,2,112.4
		c0.9,1.4,3.5,3.4,5.7,4.5l3.9,2l81-0.2c81-0.2,81-0.2,88.1-2.2c28.2-7.9,51.8-31.8,59.4-59.7l2-7.4v-82V33.7l-2-2.7
		c-1.1-1.5-3.4-3.4-5.3-4.4c-3.2-1.5-7.7-1.7-112.7-1.8C64.7,24.7,19.4,25,17.8,25.5z M234.9,35c6.3,1.8,5.9-0.9,5.7,56.3l-0.2,51.5
		l-3.7-5.5c-5.2-7.9-19.5-21.2-27.7-26c-13.6-7.7-25.4-10.7-41.7-10.7c-24.2,0-42.4,7.4-59.1,24.2c-16.6,16.6-24.2,34.8-24.2,58.7
		c0,18.8,4.6,34,14.6,48.2c4.7,6.7,18.1,19.6,23.7,22.9l4.4,2.6l-51,0.2c-55.7,0.2-55.2,0.2-57.1-4.7c-1.4-3.4-1.3-209.5,0-213.2
		c1.9-5.4-3.7-5.2,109.8-5.3C197.5,34.1,232.6,34.5,234.9,35z M55,53.5c-5.9,0.9-10,3.2-13.8,7.4c-8.5,9.8-8.4,29.3,0.5,38.4
		c5.3,5.4,9.3,7.1,17.8,7.1c6.4,0,8.1-0.4,11.8-2.4c2.4-1.3,5.2-3.2,6.3-4.4c7-7.6,8.7-21.6,4.2-32.9C78.1,57.5,66.3,51.7,55,53.5z
		 M68.6,61.6c3,1.8,4.5,3.5,6.3,7.1c2.1,4.4,2.4,5.5,2,12.7c-0.4,7-0.7,8.3-3,11.6c-3.5,5-8.4,7.7-13.9,7.7
		c-11.9,0-18.7-8.5-17.8-22.5c0.2-5.1,0.9-7.8,2.5-10.6C49.4,59.1,59.9,56.5,68.6,61.6z M176,125.8c16.9,7.9,24.6,27.9,17,44
		l-2.1,4.6l9.7,9.9c9.1,9.3,9.7,10,9.7,13.5c0,4.8-3,7.9-7.6,7.9c-3,0-4.1-0.9-13.3-9.9l-10.2-9.9l-3.7,1.7
		c-13.2,5.9-28.6,2.5-38.7-8.6c-6-6.6-8.3-12.6-8.3-22.7c0-6.7,0.4-8.6,2.4-12.9c3.1-6.7,6.1-10.5,11.3-14.4
		C151.7,121.9,165.1,120.6,176,125.8z M154.6,134.3c-20.3,7.2-21.5,34.6-1.9,43.4c2.2,1.1,5.7,1.7,9.3,1.7
		c13.2,0,22.9-9.8,22.9-23.3C184.9,140.8,169,129.2,154.6,134.3z M140.1,205.7v6.1h-6.1h-6.1v-6.1v-6.1h6.1h6.1V205.7z M162.9,205.7
		v6.1h-6.1h-6.1v-6.1v-6.1h6.1h6.1V205.7z M140.1,231.2v6.1h-6.1h-6.1v-6.1v-6.1h6.1h6.1V231.2z M162.9,231.2v6.1h-6.1h-6.1v-6.1
		v-6.1h6.1h6.1V231.2z M185.6,231.2v6.1h-6.1h-6.1v-6.1v-6.1h6.1h6.1V231.2z M208,231.2v5.7l-6.4,0.2l-6.4,0.2v-5.5
		c0-3.1,0.2-5.9,0.6-6.3c0.4-0.4,3.2-0.5,6.4-0.4l5.8,0.2V231.2z"/>
	<path class="st0" d="M222.6,87.3c-22.4,0-40.7-18.3-40.7-40.7s18.3-40.7,40.7-40.7s40.7,18.3,40.7,40.7S245.1,87.3,222.6,87.3z"/>
	<path class="st0" d="M222.6,7.5c21.5,0,39,17.5,39,39s-17.5,39-39,39s-39-17.5-39-39S201.1,7.5,222.6,7.5z M222.6,4
		c-23.5,0-42.5,19-42.5,42.5s19,42.5,42.5,42.5s42.5-19,42.5-42.5S246.1,4,222.6,4z"/>
	<g>
		<g>
			<defs>
				<rect id="SVGID_1_" x="198" y="16.5" width="51.9" height="59"/>
			</defs>
			<clipPath id="SVGID_00000059996772961447851890000014599350296030568116_">
				<use xlink:href="#SVGID_1_"  style="overflow:visible;"/>
			</clipPath>
			<g style="clip-path:url(#SVGID_00000059996772961447851890000014599350296030568116_);">
				<path class="st3" d="M249.9,33.9c0-0.9-0.2-1.9-0.6-2.6c-0.5-0.7-1.1-1.3-1.9-1.9c-6.8-4-13.8-8-20.7-12c-1.9-1.1-3.7-1.1-5.5,0
					c-2.7,1.7-16.5,9.6-20.7,12c-1.7,0.9-2.5,2.5-2.5,4.5c0,8,0,16.2,0,24.2c0,0.9,0.2,1.8,0.6,2.6c0.5,0.7,1.1,1.4,1.9,1.9
					c4.1,2.4,17.8,10.4,20.7,12c1.9,1.1,3.7,1.2,5.5,0c6.8-4,13.8-8,20.8-12c0.8-0.5,1.5-1.2,1.9-1.9c0.4-0.7,0.6-1.7,0.6-2.6
					C249.9,58.2,249.9,42,249.9,33.9z"/>
				<path class="st3" d="M224,45.9l-25.4,14.8c0.5,0.7,1.1,1.4,1.9,1.9c4.1,2.4,17.8,10.4,20.7,12c1.9,1.1,3.7,1.2,5.5,0
					c6.8-4,13.8-8,20.8-12c0.8-0.5,1.5-1.2,1.9-1.9L224,45.9z"/>
				<path class="st3" d="M216.6,50.3c1.5,2.6,4.2,4.4,7.4,4.4s6-1.8,7.4-4.4l-7.4-4.4L216.6,50.3z"/>
				<path class="st3" d="M249.9,33.9c0-0.9-0.2-1.9-0.6-2.6L224,45.9l25.3,14.8c0.4-0.7,0.6-1.7,0.6-2.6
					C249.9,58.2,249.9,42,249.9,33.9z"/>
				<path class="st0" d="M248.6,47h-2v2h-2v-2h-2v-2h2v-2h2v2h2V47z M241.4,47h-2v2h-2v-2h-2v-2h2v-2h2v2h2V47z"/>
				<path class="st0" d="M231.4,50.3c-1.4,2.6-4.2,4.4-7.4,4.4s-6-1.8-7.4-4.4c-0.7-1.3-1.2-2.8-1.2-4.2c0-4.8,3.9-8.6,8.6-8.6
					c3.2,0,5.9,1.8,7.4,4.4l7.4-4.4c-3-5.2-8.5-8.7-14.9-8.7c-9.6,0-17.2,7.8-17.2,17.4c0,3.2,0.8,6.1,2.2,8.6c3,5.2,8.5,8.7,15,8.7
					c6.4,0,12-3.5,15-8.7L231.4,50.3z"/>
			</g>
		</g>
	</g>
</g>
</svg>
