<?xml version="1.0" encoding="utf-8"?>
<!-- Generator: Adobe Illustrator 25.2.0, SVG Export Plug-In . SVG Version: 6.00 Build 0)  -->
<svg version="1.1" id="Layer_1" xmlns="http://www.w3.org/2000/svg" xmlns:xlink="http://www.w3.org/1999/xlink" x="0px" y="0px"
	 viewBox="0 0 320 320" style="enable-background:new 0 0 320 320;" xml:space="preserve">
<style type="text/css">
	.st0{fill:none;stroke:#EFEFEF;stroke-linecap:round;stroke-linejoin:round;stroke-miterlimit:10;stroke-dasharray:4,8;}
	.st1{fill-rule:evenodd;clip-rule:evenodd;fill:#FFFFFF;}
	.st2{fill-rule:evenodd;clip-rule:evenodd;fill:#A4C547;}
	.st3{fill:#A4C547;}
	.st4{fill-rule:evenodd;clip-rule:evenodd;fill:#FEFDFC;}
	.st5{fill-rule:evenodd;clip-rule:evenodd;fill:#FDFCFB;}
	.st6{fill-rule:evenodd;clip-rule:evenodd;fill:#FDFCFA;}
	.st7{fill-rule:evenodd;clip-rule:evenodd;fill:#F9F6F0;}
	.st8{fill-rule:evenodd;clip-rule:evenodd;fill:#FAF7F4;}
	.st9{fill-rule:evenodd;clip-rule:evenodd;fill:#F9F6F2;}
	.st10{fill-rule:evenodd;clip-rule:evenodd;fill:#FAF6F2;}
	.st11{fill-rule:evenodd;clip-rule:evenodd;fill:#FBF9F5;}
	.st12{fill:#EFEFEF;}
	.st13{fill:#DEDFDF;}
	.st14{fill:#4296D2;}
	.st15{fill:#0866AA;}
	.st16{fill:#2178BD;}
	.st17{fill:#4096D2;}
	.st18{display:none;fill:#FFFFFF;}
</style>
<circle class="st0" cx="154.2" cy="163.2" r="123.7"/>
<g id="_x2E_NET">
	<path id="XMLID_8_" class="st1" d="M227.4,154c-19.6,0-36.2,6.9-49.9,20.7c-13.8,13.7-20.6,30.3-20.6,49.9s6.9,36.2,20.6,49.8
		c5.1,5.2,10.5,9.3,16.4,12.6h-85.7c-1.4-0.1-2.7-0.5-4-1.2c-2.1-1-3.2-3-3.2-6V105.5c0.2-1.5,0.5-2.9,1-4c1.1-2.1,3.2-3.2,6.2-3.2
		h174.3l1.2,0.3c1,0.2,1.9,0.4,2.7,0.8c2.2,1,3.3,3.1,3.3,6.2v85.8c-3.2-5.9-7.4-11.4-12.6-16.6C263.3,160.9,246.7,154,227.4,154z"
		/>
	<path id="XMLID_2_" class="st2" d="M227.4,154c19.3,0,35.9,6.9,49.8,20.7c5.2,5.1,9.3,10.6,12.6,16.6v-85.8c0-3.1-1.1-5.1-3.3-6.2
		c-0.8-0.3-1.7-0.6-2.7-0.8l-1.2-0.3H108.2c-3,0-5,1.1-6.2,3.2c-0.5,1.1-0.9,2.4-1,4v174.4c0,3,1.1,5,3.2,6c1.3,0.7,2.6,1.1,4,1.2
		h85.7c-5.9-3.2-11.4-7.4-16.4-12.6c-13.8-13.6-20.6-30.2-20.6-49.8s6.9-36.3,20.6-49.9C191.1,160.9,207.8,154,227.4,154z
		 M287.1,90.4c1.9,0.3,3.3,0.8,4.4,1.4c4.3,2.1,6.4,5.8,6.4,11.2v121.7c0,19.5-6.9,36.1-20.8,49.8c-13.8,13.9-30.4,20.8-49.8,20.8
		H105.6c-2.1,0-4.2-0.5-6.4-1.5c-4.3-2.2-6.4-6-6.4-11.3V102.9c0-2.1,0.6-4.3,1.7-6.4c2.1-4.3,5.8-6.4,11.2-6.4h179.5L287.1,90.4z"
		/>
	<g>
		<path class="st3" d="M178.5,154.6h-4.8v-13.9c0-1.7-0.3-3-1-3.9c-0.7-0.9-1.7-1.3-3.1-1.3c-1.8,0-3.2,0.6-4.1,1.8
			c-0.9,1.2-1.3,3.2-1.3,6v11.2h-4.8v-22.6h3.8l0.7,3h0.2c0.6-1.1,1.5-1.9,2.7-2.5c1.2-0.6,2.5-0.9,3.9-0.9c3.5,0,5.8,1.2,6.9,3.5
			h0.3c0.7-1.1,1.6-2,2.8-2.6c1.2-0.6,2.6-0.9,4.2-0.9c2.7,0,4.7,0.7,5.9,2c1.2,1.4,1.8,3.4,1.8,6.2v14.7h-4.8v-13.9
			c0-1.7-0.3-3-1-3.9c-0.7-0.9-1.7-1.3-3.1-1.3c-1.9,0-3.2,0.6-4.1,1.7c-0.9,1.2-1.3,2.9-1.3,5.4
			C178.5,142.7,178.5,154.6,178.5,154.6z"/>
		<path class="st3" d="M207.7,131.7c1,0,1.8,0.1,2.4,0.2l-0.5,4.5c-0.7-0.2-1.4-0.2-2.1-0.2c-1.9,0-3.5,0.6-4.7,1.9
			s-1.8,2.9-1.8,4.9v11.8h-4.8v-22.6h3.8l0.6,4h0.2c0.8-1.3,1.7-2.4,2.9-3.2C205,132.1,206.3,131.7,207.7,131.7z"/>
	</g>
	<g>
		<path class="st3" d="M155.8,138.4c0,7.2-1.8,12.9-5.4,16.9c-3.6,4-8.7,6-15.4,6c-6.7,0-11.9-2-15.5-6s-5.4-9.7-5.4-17
			c0-7.3,1.8-13,5.4-16.9c3.6-3.9,8.8-5.9,15.5-5.9c6.6,0,11.7,2,15.3,6C154,125.5,155.8,131.2,155.8,138.4z M121.8,138.4
			c0,5.5,1.1,9.6,3.3,12.5c2.2,2.8,5.5,4.2,9.8,4.2c4.3,0,7.6-1.4,9.8-4.2c2.2-2.8,3.3-7,3.3-12.5c0-5.5-1.1-9.6-3.3-12.4
			c-2.2-2.8-5.4-4.2-9.7-4.2c-4.4,0-7.6,1.4-9.9,4.2C123,128.8,121.8,133,121.8,138.4z"/>
	</g>
	<g>
		<path class="st4" d="M237.2,219.1c-11.1,5.4-23.3,3.6-31.2-4.7c-12.6-13.3-8.1-34.8,8.3-41.8c14-6,30.3,0.8,35.1,16.1
			c2.1,6.5,1.5,13-1.6,19.2c-0.5,1-0.6,1.6,0.4,2.5c4.4,4,8.7,8.1,12.9,12.2c2.9,2.8,3,7.2,0.4,10.1c-2.6,2.8-6.8,3.2-9.9,0.5
			c-4.6-4.1-9-8.3-13.5-12.5C237.7,220.2,237.4,219.5,237.2,219.1z M242.3,197c0.6-9.6-8.1-18.5-18.5-18.2
			c-9,0.3-16.8,8.1-17.3,16.9c-0.6,11.5,8.9,18.8,17,19.2C234.1,215.4,242.9,206.2,242.3,197z"/>
		<path class="st5" d="M228.3,254.9c-3.4,0-5.4-2.2-5.4-5.7c0-3.4,2.3-5.4,6-5.3c2.9,0,5,2.4,5.2,5.5
			C234.2,252,231.4,255.4,228.3,254.9z"/>
		<path class="st5" d="M213.7,258.7c3.2,0,5.5,2.3,5.5,5.3c0,3.4-2.3,5.7-5.7,5.7c-3.3,0-5.4-2.2-5.4-5.5
			C208.2,260.7,210.3,258.7,213.7,258.7z"/>
		<path class="st6" d="M193.3,234.6c0-3.5,2.1-5.3,5.5-5.6c2.9-0.2,5.7,2.8,5.6,5.5c-0.1,3.2-2.3,5.5-5.5,5.5
			C195.5,240.1,193.3,238,193.3,234.6z"/>
		<path class="st7" d="M228.4,269.7c-3.4,0-5.6-2.3-5.5-5.6c0-3.3,2.3-5.5,5.7-5.5c3.2,0,5.5,2.4,5.4,5.7
			C234,267.5,231.7,269.7,228.4,269.7z M225.3,264.2c0,1.8,1.3,3.2,3,3.2c1.7,0.1,3.3-1.5,3.3-3.3c0-1.7-1.5-3.2-3.1-3.2
			C226.7,260.9,225.3,262.3,225.3,264.2z"/>
		<path class="st8" d="M213.5,254.9c-3.2,0-5.5-2.2-5.5-5.5c0-3.3,2.2-5.5,5.7-5.5c3.1,0,5.6,2.3,5.6,5.3
			C219.3,252.6,217,254.9,213.5,254.9z M213.7,246.1c-1.7,0-3.1,1.3-3.2,3.1c-0.1,1.9,1.3,3.4,3.1,3.4c1.7,0,3.2-1.4,3.3-3.1
			C216.9,247.7,215.4,246.1,213.7,246.1z"/>
		<path class="st8" d="M257.9,254.9c-3.2,0-5.4-2.3-5.4-5.5c0-3.2,2.2-5.5,5.3-5.5c3.6,0,5.8,2.2,6,5.5
			C263.8,252,261.1,255.4,257.9,254.9z M258.1,246.1c-1.7,0-3.1,1.4-3.1,3.1c0,2,1.2,3.4,3.1,3.4c1.7,0,3.2-1.4,3.2-3.1
			C261.3,247.7,259.8,246.1,258.1,246.1z"/>
		<path class="st9" d="M198.7,269.7c-3.2,0-5.5-2.3-5.5-5.5c0-3.4,2.2-5.6,5.7-5.6c3.2,0,5.4,2.3,5.6,5.5
			C204.6,266.9,201.9,270.1,198.7,269.7z M198.8,260.9c-1.8,0-3.2,1.5-3.1,3.4c0,1.7,1.5,3.2,3.2,3.1c1.7,0,3.3-1.7,3.2-3.4
			C201.9,262.4,200.4,260.9,198.8,260.9z"/>
		<path class="st10" d="M243.2,269.7c-3.3,0-5.5-2.3-5.5-5.5c0-3.4,2.2-5.5,5.6-5.5c3.3,0,5.5,2.4,5.6,5.7
			C248.9,267.3,245.9,270.2,243.2,269.7z M246.5,264.1c0-1.7-1.7-3.3-3.4-3.2c-1.7,0.1-3,1.5-3,3.3c0,1.8,1.4,3.2,3.1,3.2
			C244.9,267.4,246.5,265.8,246.5,264.1z"/>
		<path class="st8" d="M243.2,254.9c-3.4,0-5.5-2.2-5.6-5.6c-0.1-3,2.4-5.7,5.9-5.5c3,0.2,5.3,2.4,5.3,5.5
			C248.9,252.6,246.6,254.9,243.2,254.9z M240.1,249.4c0,1.8,1.3,3.2,3.1,3.2c1.8,0,3.3-1.5,3.3-3.3c0-1.7-1.6-3.3-3.3-3.2
			C241.4,246.1,240.1,247.6,240.1,249.4z"/>
		<path class="st8" d="M198.8,243.8c3.3,0,5.5,2.3,5.6,5.4c0.1,2.7-2.6,6-5.9,5.7c-3.1-0.3-5.3-2.3-5.4-5.5
			C193.2,246,195.4,243.8,198.8,243.8z M195.7,249.3c0,1.9,1.4,3.3,3.2,3.3c1.7,0,3.1-1.5,3.1-3.2c0-1.8-1.5-3.3-3.3-3.3
			C197,246.1,195.7,247.6,195.7,249.3z"/>
		<path class="st11" d="M213.5,240.1c-3.2,0-5.5-2.3-5.5-5.5c0-3.2,2.2-5.5,5.3-5.5c3.6,0,5.9,2.1,5.9,5.5
			C219.3,237.7,216.9,240.1,213.5,240.1z M210.5,234.6c0,1.8,1.4,3.2,3,3.3c1.7,0,3.3-1.6,3.3-3.3c0-1.7-1.6-3.2-3.2-3.2
			C211.9,231.2,210.5,232.7,210.5,234.6z"/>
		<path class="st11" d="M228.3,240.1c-3.2,0-5.5-2.3-5.5-5.5c0-3.5,2.2-5.6,5.8-5.5c3.1,0,5.3,2.4,5.3,5.5
			C234,237.9,231.7,240.1,228.3,240.1z M225.3,234.6c0,1.8,1.4,3.2,3,3.3c1.7,0,3.3-1.6,3.3-3.3c0-1.7-1.5-3.2-3.1-3.3
			C226.7,231.2,225.3,232.7,225.3,234.6z"/>
	</g>
</g>
<g>
	<path class="st12" d="M274.8,142c-19,0-34.5-15.5-34.5-34.5S255.8,73,274.8,73s34.5,15.5,34.5,34.5S293.9,142,274.8,142z"/>
	<path class="st13" d="M274.8,74.4c18.2,0,33,14.8,33,33s-14.8,33-33,33s-33-14.8-33-33S256.6,74.4,274.8,74.4 M274.8,71.4
		c-19.9,0-36,16.1-36,36s16.1,36,36,36s36-16.1,36-36S294.7,71.4,274.8,71.4L274.8,71.4z"/>
</g>
<g>
	<g>
		<polygon class="st14" points="212.9,47.1 231.2,48.2 229.8,65.2 222.6,70.2 215.4,66.7 		"/>
		<polygon class="st14" points="159.3,50.4 163.4,50.4 164.8,47.1 165.4,27.7 158.8,23.9 146.3,23.9 145.3,38.1 145.8,50 		"/>
		<polygon class="st14" points="89,54.9 82.1,48.7 70.4,49.1 69.9,74.9 70.7,75.8 89,75.8 		"/>
		<polygon class="st14" points="46.5,116.5 40.3,110.3 28.1,110.3 28.1,137.2 46.5,137.6 		"/>
		<polygon class="st14" points="51,191.1 44.9,185.6 28.7,185.3 27.2,187.1 27.2,208.7 50.5,209.1 		"/>
		<polygon class="st14" points="78.8,247.1 72.8,241.1 58.4,240.7 59,268 77.7,268 		"/>
	</g>
	<g>
		<g>
			<path class="st12" d="M210.8,45.1h22.5l-2.1,23.2l-9.2,3.1l-9.2-3.1L210.8,45.1z M228.8,52.6l0.3-2.8H215l0.7,8.5h9.8l-0.4,3.6
				l-3.1,0.8l-3.2-0.8l-0.2-2.2h-2.8l0.4,4.4l5.8,1.6h0.1l5.7-1.6l0.8-8.7h-10.3l-0.2-2.9L228.8,52.6L228.8,52.6z"/>
		</g>
		<g>
			<path class="st12" d="M165.4,27.7c0.6,0.5,0.8,1.2,0.8,2v19.5c0,0.8-0.3,1.4-0.8,2c-0.6,0.5-1.2,0.8-2,0.8h-16.9
				c-0.8,0-1.4-0.3-2-0.8s-0.8-1.2-0.8-2V24.8c0-0.8,0.3-1.4,0.8-2s1.2-0.8,2-0.8h11.9c0.8,0,1.4,0.3,2,0.8L165.4,27.7z M146.6,49.1
				h16.9V32.2h-6.1c-0.4,0-0.7-0.1-1-0.4c-0.3-0.3-0.4-0.6-0.4-1v-6.1h-9.4V49.1L146.6,49.1z M149.3,33.1c0.6-0.5,1.2-0.8,2-0.8
				s1.4,0.3,2,0.8s0.8,1.2,0.8,2s-0.3,1.5-0.8,2c-0.6,0.5-1.2,0.8-2,0.8s-1.4-0.3-2-0.8s-0.8-1.2-0.8-2S148.7,33.6,149.3,33.1z
				 M148.4,46.3v-3.8l2.3-2.3c0.3-0.3,0.6-0.3,0.9,0l2.3,2.3l5.2-5.2c0.3-0.3,0.6-0.3,0.9,0l1.4,1.4v7.5L148.4,46.3L148.4,46.3z
				 M163.2,29.4l-4.4-4.4v4.5C158.8,29.4,163.2,29.4,163.2,29.4z"/>
		</g>
		<g>
			<path class="st12" d="M51.2,190.1c0.5,0.6,0.8,1.2,0.8,2v15.7c0,0.8-0.3,1.4-0.8,2s-1.2,0.8-2,0.8H28.6c-0.8,0-1.5-0.3-2-0.8
				c-0.5-0.6-0.8-1.2-0.8-2v-20.6c0-0.8,0.3-1.4,0.8-2s1.2-0.8,2-0.8h15.7c0.8,0,1.4,0.3,2,0.8L51.2,190.1z M48.9,207.8
				c0.2,0,0.3-0.1,0.3-0.4v-15.2c0-0.1,0-0.2-0.1-0.2l-4.6-4.6v5.9c0,0.4-0.1,0.7-0.4,1c-0.3,0.3-0.6,0.4-1,0.4H32.8
				c-0.4,0-0.7-0.1-1-0.4c-0.3-0.3-0.4-0.6-0.4-1v-6.1H29c-0.2,0-0.4,0.1-0.4,0.4v19.9c0,0.2,0.1,0.4,0.4,0.4L48.9,207.8L48.9,207.8
				z M35.3,197.6c1-1,2.2-1.5,3.6-1.5s2.6,0.5,3.6,1.5s1.5,2.2,1.5,3.6s-0.5,2.6-1.5,3.6s-2.2,1.5-3.6,1.5s-2.6-0.5-3.6-1.5
				s-1.5-2.2-1.5-3.6S34.3,198.6,35.3,197.6z M41.8,187.1h-7.5v4.7h7.5V187.1z M37.3,202.9c0.5,0.4,1,0.7,1.7,0.7s1.2-0.2,1.7-0.7
				c0.5-0.4,0.7-1,0.7-1.7s-0.2-1.2-0.7-1.7c-0.5-0.4-1-0.7-1.7-0.7s-1.2,0.2-1.7,0.7c-0.5,0.4-0.7,1-0.7,1.7S36.8,202.4,37.3,202.9
				z"/>
		</g>
		<g>
			<path class="st12" d="M79.3,245.6c0.6,0.6,0.8,1.2,0.8,2V267c0,0.8-0.3,1.4-0.8,2s-1.2,0.8-2,0.8H60.4c-0.8,0-1.5-0.3-2-0.8
				s-0.8-1.2-0.8-2v-24.4c0-0.8,0.3-1.4,0.8-2s1.2-0.8,2-0.8h12c0.8,0,1.4,0.3,2,0.8L79.3,245.6z M77.3,267v-16.9h-6.1
				c-0.4,0-0.7-0.1-1-0.4c-0.3-0.3-0.4-0.6-0.4-1v-6.1h-9.4V267H77.3z M66.4,260.3c0.2,0.2,0.2,0.5,0,0.8l-1,1
				c-0.1,0.1-0.2,0.2-0.4,0.2c-0.1,0-0.2-0.1-0.3-0.2l-3.3-3.2c-0.3-0.2-0.3-0.5,0-0.7l3.3-3.2c0.3-0.3,0.5-0.3,0.8,0l1,1v0.1
				c0.2,0.2,0.2,0.5,0,0.7l-1.9,1.7L66.4,260.3z M69.9,252.4l1.4,0.4c0.3,0.1,0.5,0.3,0.3,0.6l-3.2,11c-0.1,0.4-0.3,0.5-0.6,0.4
				l-1.4-0.4c-0.3-0.1-0.5-0.3-0.3-0.6l3.2-11C69.4,252.4,69.6,252.3,69.9,252.4z M71.3,256.9c-0.2-0.2-0.2-0.5,0-0.8l1-1.1
				c0.2-0.3,0.5-0.3,0.8,0l3.3,3.2c0.3,0.2,0.3,0.5,0,0.7l-3.3,3.2c-0.3,0.3-0.5,0.3-0.8,0l-1-1V261c-0.2-0.2-0.2-0.5,0-0.7l1.9-1.7
				L71.3,256.9z M72.6,242.9v4.4H77L72.6,242.9z"/>
		</g>
		<g>
			<path class="st12" d="M48.3,117.1v19c0,0.8-0.3,1.4-0.8,1.9s-1.2,0.8-2,0.8H28.6c-0.8,0-1.4-0.3-2-0.8c-0.5-0.5-0.8-1.2-0.8-1.9
				v-23.7c0-0.8,0.3-1.4,0.8-1.9s1.2-0.8,2-0.8h12c0.8,0,1.4,0.3,2,0.8l4.9,4.8C48,115.7,48.3,116.3,48.3,117.1z M45.5,136.1v-16.4
				h-6.1c-0.4,0-0.7-0.1-1-0.4s-0.4-0.6-0.4-1v-5.9h-9.4v23.7H45.5z M42.7,123.7v1.6c0,0.5-0.2,0.7-0.7,0.7h-9.8
				c-0.5,0-0.7-0.2-0.7-0.7v-1.6c0-0.5,0.2-0.7,0.7-0.7H42C42.4,123,42.7,123.3,42.7,123.7z M42,127.8c0.5,0,0.7,0.2,0.7,0.7v1.6
				c0,0.5-0.2,0.7-0.7,0.7h-9.8c-0.5,0-0.7-0.2-0.7-0.7v-1.6c0-0.5,0.2-0.7,0.7-0.7H42z M40.8,112.5v4.3h4.5L40.8,112.5z"/>
		</g>
	</g>
	<g>
		<polygon class="st14" points="89.6,54.6 83.4,48.4 71.2,48.4 71.2,75.3 89.6,75.7 		"/>
		<g>
			<path class="st12" d="M90.6,53.1c0.5,0.6,0.8,1.2,0.8,2v19.4c0,0.8-0.3,1.4-0.8,2s-1.2,0.8-2,0.8H71.7c-0.8,0-1.5-0.3-2-0.8
				c-0.5-0.6-0.8-1.2-0.8-2V50.1c0-0.8,0.3-1.4,0.8-2s1.2-0.8,2-0.8h12c0.8,0,1.4,0.3,2,0.8L90.6,53.1z M71.7,74.6h16.9V57.7h-6.1
				c-0.4,0-0.7-0.1-1-0.4c-0.3-0.3-0.4-0.6-0.4-1v-6.1h-9.4V74.6z M84.6,62.4h0.9c0.2,0,0.4,0.1,0.6,0.3c0.1,0.2,0.2,0.4,0.2,0.6
				c-0.4,1.5-1.1,4.1-2,8c-0.1,0.4-0.3,0.5-0.7,0.5h-1.5c-0.4,0-0.6-0.2-0.7-0.5c-0.3-1.1-0.6-2.5-1-4.2l-0.2-1c0,0.3-0.1,0.6-0.2,1
				l-1,4.2c-0.1,0.4-0.3,0.5-0.6,0.5h-1.5c-0.4,0-0.6-0.2-0.7-0.5c-0.1-0.5-0.4-1.8-0.9-3.8c-0.5-2.1-0.8-3.5-1-4.1
				c-0.1-0.2,0-0.4,0.1-0.6c0.2-0.2,0.3-0.3,0.5-0.3h1c0.4,0,0.6,0.2,0.7,0.6c0.7,3.7,1.1,5.7,1.1,5.8c0,0,0,0.1,0.1,0.2
				c0-0.2,0.5-2.3,1.4-6.1c0.1-0.3,0.3-0.5,0.7-0.5h0.8c0.4,0,0.6,0.2,0.7,0.5c0.9,3.8,1.4,5.7,1.4,5.9c0,0,0,0.1,0,0.2
				c0-0.2,0.5-2.2,1.2-6C84,62.6,84.2,62.4,84.6,62.4z M88.4,54.9l-4.5-4.4v4.4H88.4z"/>
		</g>
	</g>
</g>
<g>
	<path class="st15" d="M290.9,92.2l-7.3-3.5c-0.8-0.4-1.9-0.2-2.5,0.4l-23.9,21.8c-0.6,0.6-0.6,1.6,0,2.2l2,1.8
		c0.5,0.5,1.3,0.5,1.9,0.1l28.8-21.8c1-0.7,2.4,0,2.4,1.2v-0.1C292.1,93.4,291.7,92.6,290.9,92.2z"/>
	<g>
		<path class="st16" d="M290.9,120l-7.3,3.5c-0.8,0.4-1.9,0.2-2.5-0.4l-23.9-21.8c-0.6-0.6-0.6-1.6,0-2.2l2-1.8
			c0.5-0.5,1.3-0.5,1.9-0.1l28.8,21.8c1,0.7,2.4,0,2.4-1.2v0.1C292.1,118.9,291.7,119.6,290.9,120z"/>
	</g>
	<g>
		<path class="st17" d="M283.6,123.5c-0.8,0.4-1.9,0.2-2.5-0.4c0.8,0.8,2.2,0.2,2.2-0.9V90.1c0-1.2-1.4-1.7-2.2-0.9
			c0.7-0.7,1.7-0.8,2.5-0.4l7.3,3.5c0.8,0.4,1.2,1.1,1.2,2V118c0,0.8-0.5,1.6-1.2,2L283.6,123.5z"/>
	</g>
</g>
<g>
	<g>
		<g>
			<circle class="st18" cx="923.5" cy="-48.5" r="8.1"/>
		</g>
	</g>
</g>
</svg>
